<?xml version="1.0" encoding="utf-8" standalone="no"?>
<!DOCTYPE svg PUBLIC "-//W3C//DTD SVG 1.1//EN"
  "http://www.w3.org/Graphics/SVG/1.1/DTD/svg11.dtd">
<svg height="288pt" version="1.1" viewBox="0 0 432 288" width="432pt" xmlns="http://www.w3.org/2000/svg" xmlns:xlink="http://www.w3.org/1999/xlink">
 <metadata>
  <rdf:RDF xmlns:cc="http://creativecommons.org/ns#" xmlns:dc="http://purl.org/dc/elements/1.1/" xmlns:rdf="http://www.w3.org/1999/02/22-rdf-syntax-ns#">
   <cc:Work>
    <dc:type rdf:resource="http://purl.org/dc/dcmitype/StillImage"/>
    <dc:date>2022-03-12T17:36:27.629125</dc:date>
    <dc:format>image/svg+xml</dc:format>
    <dc:creator>
     <cc:Agent>
      <dc:title>Matplotlib v3.4.3, https://matplotlib.org/</dc:title>
     </cc:Agent>
    </dc:creator>
   </cc:Work>
  </rdf:RDF>
 </metadata>
 <defs>
  <style type="text/css">*{stroke-linecap:butt;stroke-linejoin:round;}</style>
 </defs>
 <g id="figure_1">
  <g id="patch_1">
   <path d="M 0 288 
L 432 288 
L 432 0 
L 0 0 
z
" style="fill:none;"/>
  </g>
  <g id="axes_1">
   <g id="patch_2">
    <path d="M 54 252 
L 388.8 252 
L 388.8 34.56 
L 54 34.56 
z
" style="fill:#ffffff;"/>
   </g>
   <g id="matplotlib.axis_1">
    <g id="xtick_1">
     <g id="line2d_1">
      <defs>
       <path d="M 0 0 
L 0 3.5 
" id="m3fb28b788b" style="stroke:#000000;stroke-width:0.8;"/>
      </defs>
      <g>
       <use style="stroke:#000000;stroke-width:0.8;" x="69.218182" xlink:href="#m3fb28b788b" y="252"/>
      </g>
     </g>
     <g id="text_1">
      <!-- 0 -->
      <g transform="translate(66.036932 266.598437)scale(0.1 -0.1)">
       <defs>
        <path d="M 2034 4250 
Q 1547 4250 1301 3770 
Q 1056 3291 1056 2328 
Q 1056 1369 1301 889 
Q 1547 409 2034 409 
Q 2525 409 2770 889 
Q 3016 1369 3016 2328 
Q 3016 3291 2770 3770 
Q 2525 4250 2034 4250 
z
M 2034 4750 
Q 2819 4750 3233 4129 
Q 3647 3509 3647 2328 
Q 3647 1150 3233 529 
Q 2819 -91 2034 -91 
Q 1250 -91 836 529 
Q 422 1150 422 2328 
Q 422 3509 836 4129 
Q 1250 4750 2034 4750 
z
" id="DejaVuSans-30" transform="scale(0.015625)"/>
       </defs>
       <use xlink:href="#DejaVuSans-30"/>
      </g>
     </g>
    </g>
    <g id="xtick_2">
     <g id="line2d_2">
      <g>
       <use style="stroke:#000000;stroke-width:0.8;" x="111.490909" xlink:href="#m3fb28b788b" y="252"/>
      </g>
     </g>
     <g id="text_2">
      <!-- 200 -->
      <g transform="translate(101.947159 266.598437)scale(0.1 -0.1)">
       <defs>
        <path d="M 1228 531 
L 3431 531 
L 3431 0 
L 469 0 
L 469 531 
Q 828 903 1448 1529 
Q 2069 2156 2228 2338 
Q 2531 2678 2651 2914 
Q 2772 3150 2772 3378 
Q 2772 3750 2511 3984 
Q 2250 4219 1831 4219 
Q 1534 4219 1204 4116 
Q 875 4013 500 3803 
L 500 4441 
Q 881 4594 1212 4672 
Q 1544 4750 1819 4750 
Q 2544 4750 2975 4387 
Q 3406 4025 3406 3419 
Q 3406 3131 3298 2873 
Q 3191 2616 2906 2266 
Q 2828 2175 2409 1742 
Q 1991 1309 1228 531 
z
" id="DejaVuSans-32" transform="scale(0.015625)"/>
       </defs>
       <use xlink:href="#DejaVuSans-32"/>
       <use x="63.623047" xlink:href="#DejaVuSans-30"/>
       <use x="127.246094" xlink:href="#DejaVuSans-30"/>
      </g>
     </g>
    </g>
    <g id="xtick_3">
     <g id="line2d_3">
      <g>
       <use style="stroke:#000000;stroke-width:0.8;" x="153.763636" xlink:href="#m3fb28b788b" y="252"/>
      </g>
     </g>
     <g id="text_3">
      <!-- 400 -->
      <g transform="translate(144.219886 266.598437)scale(0.1 -0.1)">
       <defs>
        <path d="M 2419 4116 
L 825 1625 
L 2419 1625 
L 2419 4116 
z
M 2253 4666 
L 3047 4666 
L 3047 1625 
L 3713 1625 
L 3713 1100 
L 3047 1100 
L 3047 0 
L 2419 0 
L 2419 1100 
L 313 1100 
L 313 1709 
L 2253 4666 
z
" id="DejaVuSans-34" transform="scale(0.015625)"/>
       </defs>
       <use xlink:href="#DejaVuSans-34"/>
       <use x="63.623047" xlink:href="#DejaVuSans-30"/>
       <use x="127.246094" xlink:href="#DejaVuSans-30"/>
      </g>
     </g>
    </g>
    <g id="xtick_4">
     <g id="line2d_4">
      <g>
       <use style="stroke:#000000;stroke-width:0.8;" x="196.036364" xlink:href="#m3fb28b788b" y="252"/>
      </g>
     </g>
     <g id="text_4">
      <!-- 600 -->
      <g transform="translate(186.492614 266.598437)scale(0.1 -0.1)">
       <defs>
        <path d="M 2113 2584 
Q 1688 2584 1439 2293 
Q 1191 2003 1191 1497 
Q 1191 994 1439 701 
Q 1688 409 2113 409 
Q 2538 409 2786 701 
Q 3034 994 3034 1497 
Q 3034 2003 2786 2293 
Q 2538 2584 2113 2584 
z
M 3366 4563 
L 3366 3988 
Q 3128 4100 2886 4159 
Q 2644 4219 2406 4219 
Q 1781 4219 1451 3797 
Q 1122 3375 1075 2522 
Q 1259 2794 1537 2939 
Q 1816 3084 2150 3084 
Q 2853 3084 3261 2657 
Q 3669 2231 3669 1497 
Q 3669 778 3244 343 
Q 2819 -91 2113 -91 
Q 1303 -91 875 529 
Q 447 1150 447 2328 
Q 447 3434 972 4092 
Q 1497 4750 2381 4750 
Q 2619 4750 2861 4703 
Q 3103 4656 3366 4563 
z
" id="DejaVuSans-36" transform="scale(0.015625)"/>
       </defs>
       <use xlink:href="#DejaVuSans-36"/>
       <use x="63.623047" xlink:href="#DejaVuSans-30"/>
       <use x="127.246094" xlink:href="#DejaVuSans-30"/>
      </g>
     </g>
    </g>
    <g id="xtick_5">
     <g id="line2d_5">
      <g>
       <use style="stroke:#000000;stroke-width:0.8;" x="238.309091" xlink:href="#m3fb28b788b" y="252"/>
      </g>
     </g>
     <g id="text_5">
      <!-- 800 -->
      <g transform="translate(228.765341 266.598437)scale(0.1 -0.1)">
       <defs>
        <path d="M 2034 2216 
Q 1584 2216 1326 1975 
Q 1069 1734 1069 1313 
Q 1069 891 1326 650 
Q 1584 409 2034 409 
Q 2484 409 2743 651 
Q 3003 894 3003 1313 
Q 3003 1734 2745 1975 
Q 2488 2216 2034 2216 
z
M 1403 2484 
Q 997 2584 770 2862 
Q 544 3141 544 3541 
Q 544 4100 942 4425 
Q 1341 4750 2034 4750 
Q 2731 4750 3128 4425 
Q 3525 4100 3525 3541 
Q 3525 3141 3298 2862 
Q 3072 2584 2669 2484 
Q 3125 2378 3379 2068 
Q 3634 1759 3634 1313 
Q 3634 634 3220 271 
Q 2806 -91 2034 -91 
Q 1263 -91 848 271 
Q 434 634 434 1313 
Q 434 1759 690 2068 
Q 947 2378 1403 2484 
z
M 1172 3481 
Q 1172 3119 1398 2916 
Q 1625 2713 2034 2713 
Q 2441 2713 2670 2916 
Q 2900 3119 2900 3481 
Q 2900 3844 2670 4047 
Q 2441 4250 2034 4250 
Q 1625 4250 1398 4047 
Q 1172 3844 1172 3481 
z
" id="DejaVuSans-38" transform="scale(0.015625)"/>
       </defs>
       <use xlink:href="#DejaVuSans-38"/>
       <use x="63.623047" xlink:href="#DejaVuSans-30"/>
       <use x="127.246094" xlink:href="#DejaVuSans-30"/>
      </g>
     </g>
    </g>
    <g id="xtick_6">
     <g id="line2d_6">
      <g>
       <use style="stroke:#000000;stroke-width:0.8;" x="280.581818" xlink:href="#m3fb28b788b" y="252"/>
      </g>
     </g>
     <g id="text_6">
      <!-- 1000 -->
      <g transform="translate(267.856818 266.598437)scale(0.1 -0.1)">
       <defs>
        <path d="M 794 531 
L 1825 531 
L 1825 4091 
L 703 3866 
L 703 4441 
L 1819 4666 
L 2450 4666 
L 2450 531 
L 3481 531 
L 3481 0 
L 794 0 
L 794 531 
z
" id="DejaVuSans-31" transform="scale(0.015625)"/>
       </defs>
       <use xlink:href="#DejaVuSans-31"/>
       <use x="63.623047" xlink:href="#DejaVuSans-30"/>
       <use x="127.246094" xlink:href="#DejaVuSans-30"/>
       <use x="190.869141" xlink:href="#DejaVuSans-30"/>
      </g>
     </g>
    </g>
    <g id="xtick_7">
     <g id="line2d_7">
      <g>
       <use style="stroke:#000000;stroke-width:0.8;" x="322.854545" xlink:href="#m3fb28b788b" y="252"/>
      </g>
     </g>
     <g id="text_7">
      <!-- 1200 -->
      <g transform="translate(310.129545 266.598437)scale(0.1 -0.1)">
       <use xlink:href="#DejaVuSans-31"/>
       <use x="63.623047" xlink:href="#DejaVuSans-32"/>
       <use x="127.246094" xlink:href="#DejaVuSans-30"/>
       <use x="190.869141" xlink:href="#DejaVuSans-30"/>
      </g>
     </g>
    </g>
    <g id="xtick_8">
     <g id="line2d_8">
      <g>
       <use style="stroke:#000000;stroke-width:0.8;" x="365.127273" xlink:href="#m3fb28b788b" y="252"/>
      </g>
     </g>
     <g id="text_8">
      <!-- 1400 -->
      <g transform="translate(352.402273 266.598437)scale(0.1 -0.1)">
       <use xlink:href="#DejaVuSans-31"/>
       <use x="63.623047" xlink:href="#DejaVuSans-34"/>
       <use x="127.246094" xlink:href="#DejaVuSans-30"/>
       <use x="190.869141" xlink:href="#DejaVuSans-30"/>
      </g>
     </g>
    </g>
   </g>
   <g id="matplotlib.axis_2">
    <g id="ytick_1">
     <g id="line2d_9">
      <defs>
       <path d="M 0 0 
L -3.5 0 
" id="m7c97f95922" style="stroke:#000000;stroke-width:0.8;"/>
      </defs>
      <g>
       <use style="stroke:#000000;stroke-width:0.8;" x="54" xlink:href="#m7c97f95922" y="241.908327"/>
      </g>
     </g>
     <g id="text_9">
      <!-- 0 -->
      <g transform="translate(40.6375 245.707545)scale(0.1 -0.1)">
       <use xlink:href="#DejaVuSans-30"/>
      </g>
     </g>
    </g>
    <g id="ytick_2">
     <g id="line2d_10">
      <g>
       <use style="stroke:#000000;stroke-width:0.8;" x="54" xlink:href="#m7c97f95922" y="217.22524"/>
      </g>
     </g>
     <g id="text_10">
      <!-- 25 -->
      <g transform="translate(34.275 221.024459)scale(0.1 -0.1)">
       <defs>
        <path d="M 691 4666 
L 3169 4666 
L 3169 4134 
L 1269 4134 
L 1269 2991 
Q 1406 3038 1543 3061 
Q 1681 3084 1819 3084 
Q 2600 3084 3056 2656 
Q 3513 2228 3513 1497 
Q 3513 744 3044 326 
Q 2575 -91 1722 -91 
Q 1428 -91 1123 -41 
Q 819 9 494 109 
L 494 744 
Q 775 591 1075 516 
Q 1375 441 1709 441 
Q 2250 441 2565 725 
Q 2881 1009 2881 1497 
Q 2881 1984 2565 2268 
Q 2250 2553 1709 2553 
Q 1456 2553 1204 2497 
Q 953 2441 691 2322 
L 691 4666 
z
" id="DejaVuSans-35" transform="scale(0.015625)"/>
       </defs>
       <use xlink:href="#DejaVuSans-32"/>
       <use x="63.623047" xlink:href="#DejaVuSans-35"/>
      </g>
     </g>
    </g>
    <g id="ytick_3">
     <g id="line2d_11">
      <g>
       <use style="stroke:#000000;stroke-width:0.8;" x="54" xlink:href="#m7c97f95922" y="192.542154"/>
      </g>
     </g>
     <g id="text_11">
      <!-- 50 -->
      <g transform="translate(34.275 196.341373)scale(0.1 -0.1)">
       <use xlink:href="#DejaVuSans-35"/>
       <use x="63.623047" xlink:href="#DejaVuSans-30"/>
      </g>
     </g>
    </g>
    <g id="ytick_4">
     <g id="line2d_12">
      <g>
       <use style="stroke:#000000;stroke-width:0.8;" x="54" xlink:href="#m7c97f95922" y="167.859068"/>
      </g>
     </g>
     <g id="text_12">
      <!-- 75 -->
      <g transform="translate(34.275 171.658286)scale(0.1 -0.1)">
       <defs>
        <path d="M 525 4666 
L 3525 4666 
L 3525 4397 
L 1831 0 
L 1172 0 
L 2766 4134 
L 525 4134 
L 525 4666 
z
" id="DejaVuSans-37" transform="scale(0.015625)"/>
       </defs>
       <use xlink:href="#DejaVuSans-37"/>
       <use x="63.623047" xlink:href="#DejaVuSans-35"/>
      </g>
     </g>
    </g>
    <g id="ytick_5">
     <g id="line2d_13">
      <g>
       <use style="stroke:#000000;stroke-width:0.8;" x="54" xlink:href="#m7c97f95922" y="143.175981"/>
      </g>
     </g>
     <g id="text_13">
      <!-- 100 -->
      <g transform="translate(27.9125 146.9752)scale(0.1 -0.1)">
       <use xlink:href="#DejaVuSans-31"/>
       <use x="63.623047" xlink:href="#DejaVuSans-30"/>
       <use x="127.246094" xlink:href="#DejaVuSans-30"/>
      </g>
     </g>
    </g>
    <g id="ytick_6">
     <g id="line2d_14">
      <g>
       <use style="stroke:#000000;stroke-width:0.8;" x="54" xlink:href="#m7c97f95922" y="118.492895"/>
      </g>
     </g>
     <g id="text_14">
      <!-- 125 -->
      <g transform="translate(27.9125 122.292114)scale(0.1 -0.1)">
       <use xlink:href="#DejaVuSans-31"/>
       <use x="63.623047" xlink:href="#DejaVuSans-32"/>
       <use x="127.246094" xlink:href="#DejaVuSans-35"/>
      </g>
     </g>
    </g>
    <g id="ytick_7">
     <g id="line2d_15">
      <g>
       <use style="stroke:#000000;stroke-width:0.8;" x="54" xlink:href="#m7c97f95922" y="93.809809"/>
      </g>
     </g>
     <g id="text_15">
      <!-- 150 -->
      <g transform="translate(27.9125 97.609028)scale(0.1 -0.1)">
       <use xlink:href="#DejaVuSans-31"/>
       <use x="63.623047" xlink:href="#DejaVuSans-35"/>
       <use x="127.246094" xlink:href="#DejaVuSans-30"/>
      </g>
     </g>
    </g>
    <g id="ytick_8">
     <g id="line2d_16">
      <g>
       <use style="stroke:#000000;stroke-width:0.8;" x="54" xlink:href="#m7c97f95922" y="69.126723"/>
      </g>
     </g>
     <g id="text_16">
      <!-- 175 -->
      <g transform="translate(27.9125 72.925941)scale(0.1 -0.1)">
       <use xlink:href="#DejaVuSans-31"/>
       <use x="63.623047" xlink:href="#DejaVuSans-37"/>
       <use x="127.246094" xlink:href="#DejaVuSans-35"/>
      </g>
     </g>
    </g>
    <g id="ytick_9">
     <g id="line2d_17">
      <g>
       <use style="stroke:#000000;stroke-width:0.8;" x="54" xlink:href="#m7c97f95922" y="44.443636"/>
      </g>
     </g>
     <g id="text_17">
      <!-- 200 -->
      <g transform="translate(27.9125 48.242855)scale(0.1 -0.1)">
       <use xlink:href="#DejaVuSans-32"/>
       <use x="63.623047" xlink:href="#DejaVuSans-30"/>
       <use x="127.246094" xlink:href="#DejaVuSans-30"/>
      </g>
     </g>
    </g>
   </g>
   <g id="line2d_18">
    <defs>
     <path d="M 0 3 
C 0.795609 3 1.55874 2.683901 2.12132 2.12132 
C 2.683901 1.55874 3 0.795609 3 0 
C 3 -0.795609 2.683901 -1.55874 2.12132 -2.12132 
C 1.55874 -2.683901 0.795609 -3 0 -3 
C -0.795609 -3 -1.55874 -2.683901 -2.12132 -2.12132 
C -2.683901 -1.55874 -3 -0.795609 -3 0 
C -3 0.795609 -2.683901 1.55874 -2.12132 2.12132 
C -1.55874 2.683901 -0.795609 3 0 3 
z
" id="m57ee9702f4" style="stroke:#ff0000;"/>
    </defs>
    <g clip-path="url(#p0ef28fbea8)">
     <use style="fill:#ff0000;stroke:#ff0000;" x="69.218182" xlink:href="#m57ee9702f4" y="124.984675"/>
     <use style="fill:#ff0000;stroke:#ff0000;" x="72.388636" xlink:href="#m57ee9702f4" y="207.415099"/>
     <use style="fill:#ff0000;stroke:#ff0000;" x="75.559091" xlink:href="#m57ee9702f4" y="229.378356"/>
     <use style="fill:#ff0000;stroke:#ff0000;" x="81.9" xlink:href="#m57ee9702f4" y="235.653573"/>
     <use style="fill:#ff0000;stroke:#ff0000;" x="94.581818" xlink:href="#m57ee9702f4" y="237.239429"/>
     <use style="fill:#ff0000;stroke:#ff0000;" x="124.172727" xlink:href="#m57ee9702f4" y="239.439165"/>
     <use style="fill:#ff0000;stroke:#ff0000;" x="145.309091" xlink:href="#m57ee9702f4" y="240.257672"/>
     <use style="fill:#ff0000;stroke:#ff0000;" x="373.581818" xlink:href="#m57ee9702f4" y="242.116364"/>
    </g>
   </g>
   <g id="line2d_19">
    <defs>
     <path d="M 0 3 
C 0.795609 3 1.55874 2.683901 2.12132 2.12132 
C 2.683901 1.55874 3 0.795609 3 0 
C 3 -0.795609 2.683901 -1.55874 2.12132 -2.12132 
C 1.55874 -2.683901 0.795609 -3 0 -3 
C -0.795609 -3 -1.55874 -2.683901 -2.12132 -2.12132 
C -2.683901 -1.55874 -3 -0.795609 -3 0 
C -3 0.795609 -2.683901 1.55874 -2.12132 2.12132 
C -1.55874 2.683901 -0.795609 3 0 3 
z
" id="mdfc240e12a" style="stroke:#0000ff;"/>
    </defs>
    <g clip-path="url(#p0ef28fbea8)">
     <use style="fill:#0000ff;stroke:#0000ff;" x="69.218182" xlink:href="#mdfc240e12a" y="241.76321"/>
     <use style="fill:#0000ff;stroke:#0000ff;" x="72.388636" xlink:href="#mdfc240e12a" y="220.253982"/>
     <use style="fill:#0000ff;stroke:#0000ff;" x="75.559091" xlink:href="#mdfc240e12a" y="222.473753"/>
     <use style="fill:#0000ff;stroke:#0000ff;" x="81.9" xlink:href="#mdfc240e12a" y="230.628742"/>
     <use style="fill:#0000ff;stroke:#0000ff;" x="94.581818" xlink:href="#mdfc240e12a" y="232.183769"/>
     <use style="fill:#0000ff;stroke:#0000ff;" x="124.172727" xlink:href="#mdfc240e12a" y="232.599234"/>
     <use style="fill:#0000ff;stroke:#0000ff;" x="145.309091" xlink:href="#mdfc240e12a" y="232.379631"/>
     <use style="fill:#0000ff;stroke:#0000ff;" x="373.581818" xlink:href="#mdfc240e12a" y="230.907697"/>
    </g>
   </g>
   <g id="line2d_20">
    <defs>
     <path d="M 0 3 
C 0.795609 3 1.55874 2.683901 2.12132 2.12132 
C 2.683901 1.55874 3 0.795609 3 0 
C 3 -0.795609 2.683901 -1.55874 2.12132 -2.12132 
C 1.55874 -2.683901 0.795609 -3 0 -3 
C -0.795609 -3 -1.55874 -2.683901 -2.12132 -2.12132 
C -2.683901 -1.55874 -3 -0.795609 -3 0 
C -3 0.795609 -2.683901 1.55874 -2.12132 2.12132 
C -1.55874 2.683901 -0.795609 3 0 3 
z
" id="md106ad29af" style="stroke:#008000;"/>
    </defs>
    <g clip-path="url(#p0ef28fbea8)">
     <use style="fill:#008000;stroke:#008000;" x="69.218182" xlink:href="#md106ad29af" y="241.822071"/>
     <use style="fill:#008000;stroke:#008000;" x="72.388636" xlink:href="#md106ad29af" y="225.957123"/>
     <use style="fill:#008000;stroke:#008000;" x="75.559091" xlink:href="#md106ad29af" y="200.686161"/>
     <use style="fill:#008000;stroke:#008000;" x="81.9" xlink:href="#md106ad29af" y="188.107157"/>
     <use style="fill:#008000;stroke:#008000;" x="94.581818" xlink:href="#md106ad29af" y="183.116629"/>
     <use style="fill:#008000;stroke:#008000;" x="124.172727" xlink:href="#md106ad29af" y="184.133218"/>
     <use style="fill:#008000;stroke:#008000;" x="145.309091" xlink:href="#md106ad29af" y="183.69167"/>
     <use style="fill:#008000;stroke:#008000;" x="373.581818" xlink:href="#md106ad29af" y="177.448376"/>
    </g>
   </g>
   <g id="line2d_21">
    <path clip-path="url(#p0ef28fbea8)" d="M 69.218182 241.908327 
L 72.388636 213.442948 
L 75.559091 198.665635 
L 81.9 188.988861 
L 94.581818 185.364973 
L 124.172727 184.172802 
L 145.309091 183.957958 
L 373.581818 183.603428 
" style="fill:none;stroke:#008000;stroke-dasharray:5.55,2.4;stroke-dashoffset:0;stroke-width:1.5;"/>
   </g>
   <g id="line2d_22">
    <path clip-path="url(#p0ef28fbea8)" d="M 69.218182 44.443636 
L 72.388636 210.175073 
L 75.559091 220.664155 
L 81.9 230.368384 
L 94.581818 236.685184 
L 124.172727 239.794244 
L 145.309091 240.440951 
L 373.581818 241.573206 
" style="fill:none;stroke:#ff0000;stroke-dasharray:5.55,2.4;stroke-dashoffset:0;stroke-width:1.5;"/>
   </g>
   <g id="line2d_23">
    <path clip-path="url(#p0ef28fbea8)" d="M 69.218182 241.908327 
L 72.388636 207.162652 
L 75.559091 226.898808 
L 81.9 238.40505 
L 94.581818 241.372746 
L 124.172727 241.833554 
L 145.309091 241.87339 
L 373.581818 241.906595 
" style="fill:none;stroke:#0000ff;stroke-dasharray:5.55,2.4;stroke-dashoffset:0;stroke-width:1.5;"/>
   </g>
   <g id="patch_3">
    <path d="M 54 252 
L 54 34.56 
" style="fill:none;stroke:#000000;stroke-linecap:square;stroke-linejoin:miter;stroke-width:0.8;"/>
   </g>
   <g id="patch_4">
    <path d="M 388.8 252 
L 388.8 34.56 
" style="fill:none;stroke:#000000;stroke-linecap:square;stroke-linejoin:miter;stroke-width:0.8;"/>
   </g>
   <g id="patch_5">
    <path d="M 54 252 
L 388.8 252 
" style="fill:none;stroke:#000000;stroke-linecap:square;stroke-linejoin:miter;stroke-width:0.8;"/>
   </g>
   <g id="patch_6">
    <path d="M 54 34.56 
L 388.8 34.56 
" style="fill:none;stroke:#000000;stroke-linecap:square;stroke-linejoin:miter;stroke-width:0.8;"/>
   </g>
   <g id="legend_1">
    <g id="patch_7">
     <path d="M 226.882812 130.62875 
L 381.8 130.62875 
Q 383.8 130.62875 383.8 128.62875 
L 383.8 41.56 
Q 383.8 39.56 381.8 39.56 
L 226.882812 39.56 
Q 224.882812 39.56 224.882812 41.56 
L 224.882812 128.62875 
Q 224.882812 130.62875 226.882812 130.62875 
z
" style="fill:#ffffff;opacity:0.8;stroke:#cccccc;stroke-linejoin:miter;"/>
    </g>
    <g id="line2d_24"/>
    <g id="line2d_25">
     <g>
      <use style="fill:#ff0000;stroke:#ff0000;" x="238.882812" xlink:href="#m57ee9702f4" y="47.658437"/>
     </g>
    </g>
    <g id="text_18">
     <!-- bunatal measured -->
     <g transform="translate(256.882812 51.158437)scale(0.1 -0.1)">
      <defs>
       <path d="M 3116 1747 
Q 3116 2381 2855 2742 
Q 2594 3103 2138 3103 
Q 1681 3103 1420 2742 
Q 1159 2381 1159 1747 
Q 1159 1113 1420 752 
Q 1681 391 2138 391 
Q 2594 391 2855 752 
Q 3116 1113 3116 1747 
z
M 1159 2969 
Q 1341 3281 1617 3432 
Q 1894 3584 2278 3584 
Q 2916 3584 3314 3078 
Q 3713 2572 3713 1747 
Q 3713 922 3314 415 
Q 2916 -91 2278 -91 
Q 1894 -91 1617 61 
Q 1341 213 1159 525 
L 1159 0 
L 581 0 
L 581 4863 
L 1159 4863 
L 1159 2969 
z
" id="DejaVuSans-62" transform="scale(0.015625)"/>
       <path d="M 544 1381 
L 544 3500 
L 1119 3500 
L 1119 1403 
Q 1119 906 1312 657 
Q 1506 409 1894 409 
Q 2359 409 2629 706 
Q 2900 1003 2900 1516 
L 2900 3500 
L 3475 3500 
L 3475 0 
L 2900 0 
L 2900 538 
Q 2691 219 2414 64 
Q 2138 -91 1772 -91 
Q 1169 -91 856 284 
Q 544 659 544 1381 
z
M 1991 3584 
L 1991 3584 
z
" id="DejaVuSans-75" transform="scale(0.015625)"/>
       <path d="M 3513 2113 
L 3513 0 
L 2938 0 
L 2938 2094 
Q 2938 2591 2744 2837 
Q 2550 3084 2163 3084 
Q 1697 3084 1428 2787 
Q 1159 2491 1159 1978 
L 1159 0 
L 581 0 
L 581 3500 
L 1159 3500 
L 1159 2956 
Q 1366 3272 1645 3428 
Q 1925 3584 2291 3584 
Q 2894 3584 3203 3211 
Q 3513 2838 3513 2113 
z
" id="DejaVuSans-6e" transform="scale(0.015625)"/>
       <path d="M 2194 1759 
Q 1497 1759 1228 1600 
Q 959 1441 959 1056 
Q 959 750 1161 570 
Q 1363 391 1709 391 
Q 2188 391 2477 730 
Q 2766 1069 2766 1631 
L 2766 1759 
L 2194 1759 
z
M 3341 1997 
L 3341 0 
L 2766 0 
L 2766 531 
Q 2569 213 2275 61 
Q 1981 -91 1556 -91 
Q 1019 -91 701 211 
Q 384 513 384 1019 
Q 384 1609 779 1909 
Q 1175 2209 1959 2209 
L 2766 2209 
L 2766 2266 
Q 2766 2663 2505 2880 
Q 2244 3097 1772 3097 
Q 1472 3097 1187 3025 
Q 903 2953 641 2809 
L 641 3341 
Q 956 3463 1253 3523 
Q 1550 3584 1831 3584 
Q 2591 3584 2966 3190 
Q 3341 2797 3341 1997 
z
" id="DejaVuSans-61" transform="scale(0.015625)"/>
       <path d="M 1172 4494 
L 1172 3500 
L 2356 3500 
L 2356 3053 
L 1172 3053 
L 1172 1153 
Q 1172 725 1289 603 
Q 1406 481 1766 481 
L 2356 481 
L 2356 0 
L 1766 0 
Q 1100 0 847 248 
Q 594 497 594 1153 
L 594 3053 
L 172 3053 
L 172 3500 
L 594 3500 
L 594 4494 
L 1172 4494 
z
" id="DejaVuSans-74" transform="scale(0.015625)"/>
       <path d="M 603 4863 
L 1178 4863 
L 1178 0 
L 603 0 
L 603 4863 
z
" id="DejaVuSans-6c" transform="scale(0.015625)"/>
       <path id="DejaVuSans-20" transform="scale(0.015625)"/>
       <path d="M 3328 2828 
Q 3544 3216 3844 3400 
Q 4144 3584 4550 3584 
Q 5097 3584 5394 3201 
Q 5691 2819 5691 2113 
L 5691 0 
L 5113 0 
L 5113 2094 
Q 5113 2597 4934 2840 
Q 4756 3084 4391 3084 
Q 3944 3084 3684 2787 
Q 3425 2491 3425 1978 
L 3425 0 
L 2847 0 
L 2847 2094 
Q 2847 2600 2669 2842 
Q 2491 3084 2119 3084 
Q 1678 3084 1418 2786 
Q 1159 2488 1159 1978 
L 1159 0 
L 581 0 
L 581 3500 
L 1159 3500 
L 1159 2956 
Q 1356 3278 1631 3431 
Q 1906 3584 2284 3584 
Q 2666 3584 2933 3390 
Q 3200 3197 3328 2828 
z
" id="DejaVuSans-6d" transform="scale(0.015625)"/>
       <path d="M 3597 1894 
L 3597 1613 
L 953 1613 
Q 991 1019 1311 708 
Q 1631 397 2203 397 
Q 2534 397 2845 478 
Q 3156 559 3463 722 
L 3463 178 
Q 3153 47 2828 -22 
Q 2503 -91 2169 -91 
Q 1331 -91 842 396 
Q 353 884 353 1716 
Q 353 2575 817 3079 
Q 1281 3584 2069 3584 
Q 2775 3584 3186 3129 
Q 3597 2675 3597 1894 
z
M 3022 2063 
Q 3016 2534 2758 2815 
Q 2500 3097 2075 3097 
Q 1594 3097 1305 2825 
Q 1016 2553 972 2059 
L 3022 2063 
z
" id="DejaVuSans-65" transform="scale(0.015625)"/>
       <path d="M 2834 3397 
L 2834 2853 
Q 2591 2978 2328 3040 
Q 2066 3103 1784 3103 
Q 1356 3103 1142 2972 
Q 928 2841 928 2578 
Q 928 2378 1081 2264 
Q 1234 2150 1697 2047 
L 1894 2003 
Q 2506 1872 2764 1633 
Q 3022 1394 3022 966 
Q 3022 478 2636 193 
Q 2250 -91 1575 -91 
Q 1294 -91 989 -36 
Q 684 19 347 128 
L 347 722 
Q 666 556 975 473 
Q 1284 391 1588 391 
Q 1994 391 2212 530 
Q 2431 669 2431 922 
Q 2431 1156 2273 1281 
Q 2116 1406 1581 1522 
L 1381 1569 
Q 847 1681 609 1914 
Q 372 2147 372 2553 
Q 372 3047 722 3315 
Q 1072 3584 1716 3584 
Q 2034 3584 2315 3537 
Q 2597 3491 2834 3397 
z
" id="DejaVuSans-73" transform="scale(0.015625)"/>
       <path d="M 2631 2963 
Q 2534 3019 2420 3045 
Q 2306 3072 2169 3072 
Q 1681 3072 1420 2755 
Q 1159 2438 1159 1844 
L 1159 0 
L 581 0 
L 581 3500 
L 1159 3500 
L 1159 2956 
Q 1341 3275 1631 3429 
Q 1922 3584 2338 3584 
Q 2397 3584 2469 3576 
Q 2541 3569 2628 3553 
L 2631 2963 
z
" id="DejaVuSans-72" transform="scale(0.015625)"/>
       <path d="M 2906 2969 
L 2906 4863 
L 3481 4863 
L 3481 0 
L 2906 0 
L 2906 525 
Q 2725 213 2448 61 
Q 2172 -91 1784 -91 
Q 1150 -91 751 415 
Q 353 922 353 1747 
Q 353 2572 751 3078 
Q 1150 3584 1784 3584 
Q 2172 3584 2448 3432 
Q 2725 3281 2906 2969 
z
M 947 1747 
Q 947 1113 1208 752 
Q 1469 391 1925 391 
Q 2381 391 2643 752 
Q 2906 1113 2906 1747 
Q 2906 2381 2643 2742 
Q 2381 3103 1925 3103 
Q 1469 3103 1208 2742 
Q 947 2381 947 1747 
z
" id="DejaVuSans-64" transform="scale(0.015625)"/>
      </defs>
      <use xlink:href="#DejaVuSans-62"/>
      <use x="63.476562" xlink:href="#DejaVuSans-75"/>
      <use x="126.855469" xlink:href="#DejaVuSans-6e"/>
      <use x="190.234375" xlink:href="#DejaVuSans-61"/>
      <use x="251.513672" xlink:href="#DejaVuSans-74"/>
      <use x="290.722656" xlink:href="#DejaVuSans-61"/>
      <use x="352.001953" xlink:href="#DejaVuSans-6c"/>
      <use x="379.785156" xlink:href="#DejaVuSans-20"/>
      <use x="411.572266" xlink:href="#DejaVuSans-6d"/>
      <use x="508.984375" xlink:href="#DejaVuSans-65"/>
      <use x="570.507812" xlink:href="#DejaVuSans-61"/>
      <use x="631.787109" xlink:href="#DejaVuSans-73"/>
      <use x="683.886719" xlink:href="#DejaVuSans-75"/>
      <use x="747.265625" xlink:href="#DejaVuSans-72"/>
      <use x="786.128906" xlink:href="#DejaVuSans-65"/>
      <use x="847.652344" xlink:href="#DejaVuSans-64"/>
     </g>
    </g>
    <g id="line2d_26"/>
    <g id="line2d_27">
     <g>
      <use style="fill:#0000ff;stroke:#0000ff;" x="238.882812" xlink:href="#mdfc240e12a" y="62.336562"/>
     </g>
    </g>
    <g id="text_19">
     <!-- butyroin measured -->
     <g transform="translate(256.882812 65.836562)scale(0.1 -0.1)">
      <defs>
       <path d="M 2059 -325 
Q 1816 -950 1584 -1140 
Q 1353 -1331 966 -1331 
L 506 -1331 
L 506 -850 
L 844 -850 
Q 1081 -850 1212 -737 
Q 1344 -625 1503 -206 
L 1606 56 
L 191 3500 
L 800 3500 
L 1894 763 
L 2988 3500 
L 3597 3500 
L 2059 -325 
z
" id="DejaVuSans-79" transform="scale(0.015625)"/>
       <path d="M 1959 3097 
Q 1497 3097 1228 2736 
Q 959 2375 959 1747 
Q 959 1119 1226 758 
Q 1494 397 1959 397 
Q 2419 397 2687 759 
Q 2956 1122 2956 1747 
Q 2956 2369 2687 2733 
Q 2419 3097 1959 3097 
z
M 1959 3584 
Q 2709 3584 3137 3096 
Q 3566 2609 3566 1747 
Q 3566 888 3137 398 
Q 2709 -91 1959 -91 
Q 1206 -91 779 398 
Q 353 888 353 1747 
Q 353 2609 779 3096 
Q 1206 3584 1959 3584 
z
" id="DejaVuSans-6f" transform="scale(0.015625)"/>
       <path d="M 603 3500 
L 1178 3500 
L 1178 0 
L 603 0 
L 603 3500 
z
M 603 4863 
L 1178 4863 
L 1178 4134 
L 603 4134 
L 603 4863 
z
" id="DejaVuSans-69" transform="scale(0.015625)"/>
      </defs>
      <use xlink:href="#DejaVuSans-62"/>
      <use x="63.476562" xlink:href="#DejaVuSans-75"/>
      <use x="126.855469" xlink:href="#DejaVuSans-74"/>
      <use x="166.064453" xlink:href="#DejaVuSans-79"/>
      <use x="225.244141" xlink:href="#DejaVuSans-72"/>
      <use x="264.107422" xlink:href="#DejaVuSans-6f"/>
      <use x="325.289062" xlink:href="#DejaVuSans-69"/>
      <use x="353.072266" xlink:href="#DejaVuSans-6e"/>
      <use x="416.451172" xlink:href="#DejaVuSans-20"/>
      <use x="448.238281" xlink:href="#DejaVuSans-6d"/>
      <use x="545.650391" xlink:href="#DejaVuSans-65"/>
      <use x="607.173828" xlink:href="#DejaVuSans-61"/>
      <use x="668.453125" xlink:href="#DejaVuSans-73"/>
      <use x="720.552734" xlink:href="#DejaVuSans-75"/>
      <use x="783.931641" xlink:href="#DejaVuSans-72"/>
      <use x="822.794922" xlink:href="#DejaVuSans-65"/>
      <use x="884.318359" xlink:href="#DejaVuSans-64"/>
     </g>
    </g>
    <g id="line2d_28"/>
    <g id="line2d_29">
     <g>
      <use style="fill:#008000;stroke:#008000;" x="238.882812" xlink:href="#md106ad29af" y="77.014687"/>
     </g>
    </g>
    <g id="text_20">
     <!-- doppelalkohol measured -->
     <g transform="translate(256.882812 80.514687)scale(0.1 -0.1)">
      <defs>
       <path d="M 1159 525 
L 1159 -1331 
L 581 -1331 
L 581 3500 
L 1159 3500 
L 1159 2969 
Q 1341 3281 1617 3432 
Q 1894 3584 2278 3584 
Q 2916 3584 3314 3078 
Q 3713 2572 3713 1747 
Q 3713 922 3314 415 
Q 2916 -91 2278 -91 
Q 1894 -91 1617 61 
Q 1341 213 1159 525 
z
M 3116 1747 
Q 3116 2381 2855 2742 
Q 2594 3103 2138 3103 
Q 1681 3103 1420 2742 
Q 1159 2381 1159 1747 
Q 1159 1113 1420 752 
Q 1681 391 2138 391 
Q 2594 391 2855 752 
Q 3116 1113 3116 1747 
z
" id="DejaVuSans-70" transform="scale(0.015625)"/>
       <path d="M 581 4863 
L 1159 4863 
L 1159 1991 
L 2875 3500 
L 3609 3500 
L 1753 1863 
L 3688 0 
L 2938 0 
L 1159 1709 
L 1159 0 
L 581 0 
L 581 4863 
z
" id="DejaVuSans-6b" transform="scale(0.015625)"/>
       <path d="M 3513 2113 
L 3513 0 
L 2938 0 
L 2938 2094 
Q 2938 2591 2744 2837 
Q 2550 3084 2163 3084 
Q 1697 3084 1428 2787 
Q 1159 2491 1159 1978 
L 1159 0 
L 581 0 
L 581 4863 
L 1159 4863 
L 1159 2956 
Q 1366 3272 1645 3428 
Q 1925 3584 2291 3584 
Q 2894 3584 3203 3211 
Q 3513 2838 3513 2113 
z
" id="DejaVuSans-68" transform="scale(0.015625)"/>
      </defs>
      <use xlink:href="#DejaVuSans-64"/>
      <use x="63.476562" xlink:href="#DejaVuSans-6f"/>
      <use x="124.658203" xlink:href="#DejaVuSans-70"/>
      <use x="188.134766" xlink:href="#DejaVuSans-70"/>
      <use x="251.611328" xlink:href="#DejaVuSans-65"/>
      <use x="313.134766" xlink:href="#DejaVuSans-6c"/>
      <use x="340.917969" xlink:href="#DejaVuSans-61"/>
      <use x="402.197266" xlink:href="#DejaVuSans-6c"/>
      <use x="429.980469" xlink:href="#DejaVuSans-6b"/>
      <use x="484.265625" xlink:href="#DejaVuSans-6f"/>
      <use x="545.447266" xlink:href="#DejaVuSans-68"/>
      <use x="608.826172" xlink:href="#DejaVuSans-6f"/>
      <use x="670.007812" xlink:href="#DejaVuSans-6c"/>
      <use x="697.791016" xlink:href="#DejaVuSans-20"/>
      <use x="729.578125" xlink:href="#DejaVuSans-6d"/>
      <use x="826.990234" xlink:href="#DejaVuSans-65"/>
      <use x="888.513672" xlink:href="#DejaVuSans-61"/>
      <use x="949.792969" xlink:href="#DejaVuSans-73"/>
      <use x="1001.892578" xlink:href="#DejaVuSans-75"/>
      <use x="1065.271484" xlink:href="#DejaVuSans-72"/>
      <use x="1104.134766" xlink:href="#DejaVuSans-65"/>
      <use x="1165.658203" xlink:href="#DejaVuSans-64"/>
     </g>
    </g>
    <g id="line2d_30">
     <path d="M 228.882812 91.692813 
L 248.882812 91.692813 
" style="fill:none;stroke:#008000;stroke-dasharray:5.55,2.4;stroke-dashoffset:0;stroke-width:1.5;"/>
    </g>
    <g id="line2d_31"/>
    <g id="text_21">
     <!-- doppelalkohol modelled -->
     <g transform="translate(256.882812 95.192813)scale(0.1 -0.1)">
      <use xlink:href="#DejaVuSans-64"/>
      <use x="63.476562" xlink:href="#DejaVuSans-6f"/>
      <use x="124.658203" xlink:href="#DejaVuSans-70"/>
      <use x="188.134766" xlink:href="#DejaVuSans-70"/>
      <use x="251.611328" xlink:href="#DejaVuSans-65"/>
      <use x="313.134766" xlink:href="#DejaVuSans-6c"/>
      <use x="340.917969" xlink:href="#DejaVuSans-61"/>
      <use x="402.197266" xlink:href="#DejaVuSans-6c"/>
      <use x="429.980469" xlink:href="#DejaVuSans-6b"/>
      <use x="484.265625" xlink:href="#DejaVuSans-6f"/>
      <use x="545.447266" xlink:href="#DejaVuSans-68"/>
      <use x="608.826172" xlink:href="#DejaVuSans-6f"/>
      <use x="670.007812" xlink:href="#DejaVuSans-6c"/>
      <use x="697.791016" xlink:href="#DejaVuSans-20"/>
      <use x="729.578125" xlink:href="#DejaVuSans-6d"/>
      <use x="826.990234" xlink:href="#DejaVuSans-6f"/>
      <use x="888.171875" xlink:href="#DejaVuSans-64"/>
      <use x="951.648438" xlink:href="#DejaVuSans-65"/>
      <use x="1013.171875" xlink:href="#DejaVuSans-6c"/>
      <use x="1040.955078" xlink:href="#DejaVuSans-6c"/>
      <use x="1068.738281" xlink:href="#DejaVuSans-65"/>
      <use x="1130.261719" xlink:href="#DejaVuSans-64"/>
     </g>
    </g>
    <g id="line2d_32">
     <path d="M 228.882812 106.370937 
L 248.882812 106.370937 
" style="fill:none;stroke:#ff0000;stroke-dasharray:5.55,2.4;stroke-dashoffset:0;stroke-width:1.5;"/>
    </g>
    <g id="line2d_33"/>
    <g id="text_22">
     <!-- bunatal modelled -->
     <g transform="translate(256.882812 109.870937)scale(0.1 -0.1)">
      <use xlink:href="#DejaVuSans-62"/>
      <use x="63.476562" xlink:href="#DejaVuSans-75"/>
      <use x="126.855469" xlink:href="#DejaVuSans-6e"/>
      <use x="190.234375" xlink:href="#DejaVuSans-61"/>
      <use x="251.513672" xlink:href="#DejaVuSans-74"/>
      <use x="290.722656" xlink:href="#DejaVuSans-61"/>
      <use x="352.001953" xlink:href="#DejaVuSans-6c"/>
      <use x="379.785156" xlink:href="#DejaVuSans-20"/>
      <use x="411.572266" xlink:href="#DejaVuSans-6d"/>
      <use x="508.984375" xlink:href="#DejaVuSans-6f"/>
      <use x="570.166016" xlink:href="#DejaVuSans-64"/>
      <use x="633.642578" xlink:href="#DejaVuSans-65"/>
      <use x="695.166016" xlink:href="#DejaVuSans-6c"/>
      <use x="722.949219" xlink:href="#DejaVuSans-6c"/>
      <use x="750.732422" xlink:href="#DejaVuSans-65"/>
      <use x="812.255859" xlink:href="#DejaVuSans-64"/>
     </g>
    </g>
    <g id="line2d_34">
     <path d="M 228.882812 121.049062 
L 248.882812 121.049062 
" style="fill:none;stroke:#0000ff;stroke-dasharray:5.55,2.4;stroke-dashoffset:0;stroke-width:1.5;"/>
    </g>
    <g id="line2d_35"/>
    <g id="text_23">
     <!-- butyroin modelled -->
     <g transform="translate(256.882812 124.549062)scale(0.1 -0.1)">
      <use xlink:href="#DejaVuSans-62"/>
      <use x="63.476562" xlink:href="#DejaVuSans-75"/>
      <use x="126.855469" xlink:href="#DejaVuSans-74"/>
      <use x="166.064453" xlink:href="#DejaVuSans-79"/>
      <use x="225.244141" xlink:href="#DejaVuSans-72"/>
      <use x="264.107422" xlink:href="#DejaVuSans-6f"/>
      <use x="325.289062" xlink:href="#DejaVuSans-69"/>
      <use x="353.072266" xlink:href="#DejaVuSans-6e"/>
      <use x="416.451172" xlink:href="#DejaVuSans-20"/>
      <use x="448.238281" xlink:href="#DejaVuSans-6d"/>
      <use x="545.650391" xlink:href="#DejaVuSans-6f"/>
      <use x="606.832031" xlink:href="#DejaVuSans-64"/>
      <use x="670.308594" xlink:href="#DejaVuSans-65"/>
      <use x="731.832031" xlink:href="#DejaVuSans-6c"/>
      <use x="759.615234" xlink:href="#DejaVuSans-6c"/>
      <use x="787.398438" xlink:href="#DejaVuSans-65"/>
      <use x="848.921875" xlink:href="#DejaVuSans-64"/>
     </g>
    </g>
   </g>
  </g>
 </g>
 <defs>
  <clipPath id="p0ef28fbea8">
   <rect height="217.44" width="334.8" x="54" y="34.56"/>
  </clipPath>
 </defs>
</svg>
