<?xml version="1.0" encoding="utf-8" standalone="no"?>
<!DOCTYPE svg PUBLIC "-//W3C//DTD SVG 1.1//EN"
  "http://www.w3.org/Graphics/SVG/1.1/DTD/svg11.dtd">
<svg height="288pt" version="1.1" viewBox="0 0 432 288" width="432pt" xmlns="http://www.w3.org/2000/svg" xmlns:xlink="http://www.w3.org/1999/xlink">
 <metadata>
  <rdf:RDF xmlns:cc="http://creativecommons.org/ns#" xmlns:dc="http://purl.org/dc/elements/1.1/" xmlns:rdf="http://www.w3.org/1999/02/22-rdf-syntax-ns#">
   <cc:Work>
    <dc:type rdf:resource="http://purl.org/dc/dcmitype/StillImage"/>
    <dc:date>2022-02-18T17:57:17.280014</dc:date>
    <dc:format>image/svg+xml</dc:format>
    <dc:creator>
     <cc:Agent>
      <dc:title>Matplotlib v3.4.3, https://matplotlib.org/</dc:title>
     </cc:Agent>
    </dc:creator>
   </cc:Work>
  </rdf:RDF>
 </metadata>
 <defs>
  <style type="text/css">*{stroke-linecap:butt;stroke-linejoin:round;}</style>
 </defs>
 <g id="figure_1">
  <g id="patch_1">
   <path d="M 0 288 
L 432 288 
L 432 0 
L 0 0 
z
" style="fill:#f0f0f0;"/>
  </g>
  <g id="axes_1">
   <g id="patch_2">
    <path d="M 54 252 
L 388.8 252 
L 388.8 34.56 
L 54 34.56 
z
" style="fill:#ffffff;"/>
   </g>
   <g id="matplotlib.axis_1">
    <g id="xtick_1">
     <g id="line2d_1">
      <defs>
       <path d="M 0 0 
L 0 3.5 
" id="m4094596271" style="stroke:#000000;stroke-width:0.8;"/>
      </defs>
      <g>
       <use style="stroke:#000000;stroke-width:0.8;" x="69.218182" xlink:href="#m4094596271" y="252"/>
      </g>
     </g>
     <g id="text_1">
      <!-- 0 -->
      <g transform="translate(66.036932 266.598437)scale(0.1 -0.1)">
       <defs>
        <path d="M 2034 4250 
Q 1547 4250 1301 3770 
Q 1056 3291 1056 2328 
Q 1056 1369 1301 889 
Q 1547 409 2034 409 
Q 2525 409 2770 889 
Q 3016 1369 3016 2328 
Q 3016 3291 2770 3770 
Q 2525 4250 2034 4250 
z
M 2034 4750 
Q 2819 4750 3233 4129 
Q 3647 3509 3647 2328 
Q 3647 1150 3233 529 
Q 2819 -91 2034 -91 
Q 1250 -91 836 529 
Q 422 1150 422 2328 
Q 422 3509 836 4129 
Q 1250 4750 2034 4750 
z
" id="DejaVuSans-30" transform="scale(0.015625)"/>
       </defs>
       <use xlink:href="#DejaVuSans-30"/>
      </g>
     </g>
    </g>
    <g id="xtick_2">
     <g id="line2d_2">
      <g>
       <use style="stroke:#000000;stroke-width:0.8;" x="122.059091" xlink:href="#m4094596271" y="252"/>
      </g>
     </g>
     <g id="text_2">
      <!-- 250 -->
      <g transform="translate(112.515341 266.598437)scale(0.1 -0.1)">
       <defs>
        <path d="M 1228 531 
L 3431 531 
L 3431 0 
L 469 0 
L 469 531 
Q 828 903 1448 1529 
Q 2069 2156 2228 2338 
Q 2531 2678 2651 2914 
Q 2772 3150 2772 3378 
Q 2772 3750 2511 3984 
Q 2250 4219 1831 4219 
Q 1534 4219 1204 4116 
Q 875 4013 500 3803 
L 500 4441 
Q 881 4594 1212 4672 
Q 1544 4750 1819 4750 
Q 2544 4750 2975 4387 
Q 3406 4025 3406 3419 
Q 3406 3131 3298 2873 
Q 3191 2616 2906 2266 
Q 2828 2175 2409 1742 
Q 1991 1309 1228 531 
z
" id="DejaVuSans-32" transform="scale(0.015625)"/>
        <path d="M 691 4666 
L 3169 4666 
L 3169 4134 
L 1269 4134 
L 1269 2991 
Q 1406 3038 1543 3061 
Q 1681 3084 1819 3084 
Q 2600 3084 3056 2656 
Q 3513 2228 3513 1497 
Q 3513 744 3044 326 
Q 2575 -91 1722 -91 
Q 1428 -91 1123 -41 
Q 819 9 494 109 
L 494 744 
Q 775 591 1075 516 
Q 1375 441 1709 441 
Q 2250 441 2565 725 
Q 2881 1009 2881 1497 
Q 2881 1984 2565 2268 
Q 2250 2553 1709 2553 
Q 1456 2553 1204 2497 
Q 953 2441 691 2322 
L 691 4666 
z
" id="DejaVuSans-35" transform="scale(0.015625)"/>
       </defs>
       <use xlink:href="#DejaVuSans-32"/>
       <use x="63.623047" xlink:href="#DejaVuSans-35"/>
       <use x="127.246094" xlink:href="#DejaVuSans-30"/>
      </g>
     </g>
    </g>
    <g id="xtick_3">
     <g id="line2d_3">
      <g>
       <use style="stroke:#000000;stroke-width:0.8;" x="174.9" xlink:href="#m4094596271" y="252"/>
      </g>
     </g>
     <g id="text_3">
      <!-- 500 -->
      <g transform="translate(165.35625 266.598437)scale(0.1 -0.1)">
       <use xlink:href="#DejaVuSans-35"/>
       <use x="63.623047" xlink:href="#DejaVuSans-30"/>
       <use x="127.246094" xlink:href="#DejaVuSans-30"/>
      </g>
     </g>
    </g>
    <g id="xtick_4">
     <g id="line2d_4">
      <g>
       <use style="stroke:#000000;stroke-width:0.8;" x="227.740909" xlink:href="#m4094596271" y="252"/>
      </g>
     </g>
     <g id="text_4">
      <!-- 750 -->
      <g transform="translate(218.197159 266.598437)scale(0.1 -0.1)">
       <defs>
        <path d="M 525 4666 
L 3525 4666 
L 3525 4397 
L 1831 0 
L 1172 0 
L 2766 4134 
L 525 4134 
L 525 4666 
z
" id="DejaVuSans-37" transform="scale(0.015625)"/>
       </defs>
       <use xlink:href="#DejaVuSans-37"/>
       <use x="63.623047" xlink:href="#DejaVuSans-35"/>
       <use x="127.246094" xlink:href="#DejaVuSans-30"/>
      </g>
     </g>
    </g>
    <g id="xtick_5">
     <g id="line2d_5">
      <g>
       <use style="stroke:#000000;stroke-width:0.8;" x="280.581818" xlink:href="#m4094596271" y="252"/>
      </g>
     </g>
     <g id="text_5">
      <!-- 1000 -->
      <g transform="translate(267.856818 266.598437)scale(0.1 -0.1)">
       <defs>
        <path d="M 794 531 
L 1825 531 
L 1825 4091 
L 703 3866 
L 703 4441 
L 1819 4666 
L 2450 4666 
L 2450 531 
L 3481 531 
L 3481 0 
L 794 0 
L 794 531 
z
" id="DejaVuSans-31" transform="scale(0.015625)"/>
       </defs>
       <use xlink:href="#DejaVuSans-31"/>
       <use x="63.623047" xlink:href="#DejaVuSans-30"/>
       <use x="127.246094" xlink:href="#DejaVuSans-30"/>
       <use x="190.869141" xlink:href="#DejaVuSans-30"/>
      </g>
     </g>
    </g>
    <g id="xtick_6">
     <g id="line2d_6">
      <g>
       <use style="stroke:#000000;stroke-width:0.8;" x="333.422727" xlink:href="#m4094596271" y="252"/>
      </g>
     </g>
     <g id="text_6">
      <!-- 1250 -->
      <g transform="translate(320.697727 266.598437)scale(0.1 -0.1)">
       <use xlink:href="#DejaVuSans-31"/>
       <use x="63.623047" xlink:href="#DejaVuSans-32"/>
       <use x="127.246094" xlink:href="#DejaVuSans-35"/>
       <use x="190.869141" xlink:href="#DejaVuSans-30"/>
      </g>
     </g>
    </g>
    <g id="xtick_7">
     <g id="line2d_7">
      <g>
       <use style="stroke:#000000;stroke-width:0.8;" x="386.263636" xlink:href="#m4094596271" y="252"/>
      </g>
     </g>
     <g id="text_7">
      <!-- 1500 -->
      <g transform="translate(373.538636 266.598437)scale(0.1 -0.1)">
       <use xlink:href="#DejaVuSans-31"/>
       <use x="63.623047" xlink:href="#DejaVuSans-35"/>
       <use x="127.246094" xlink:href="#DejaVuSans-30"/>
       <use x="190.869141" xlink:href="#DejaVuSans-30"/>
      </g>
     </g>
    </g>
   </g>
   <g id="matplotlib.axis_2">
    <g id="ytick_1">
     <g id="line2d_8">
      <defs>
       <path d="M 0 0 
L -3.5 0 
" id="m65150c81ea" style="stroke:#000000;stroke-width:0.8;"/>
      </defs>
      <g>
       <use style="stroke:#000000;stroke-width:0.8;" x="54" xlink:href="#m65150c81ea" y="242.116364"/>
      </g>
     </g>
     <g id="text_8">
      <!-- 0 -->
      <g transform="translate(40.6375 245.915582)scale(0.1 -0.1)">
       <use xlink:href="#DejaVuSans-30"/>
      </g>
     </g>
    </g>
    <g id="ytick_2">
     <g id="line2d_9">
      <g>
       <use style="stroke:#000000;stroke-width:0.8;" x="54" xlink:href="#m65150c81ea" y="200.934545"/>
      </g>
     </g>
     <g id="text_9">
      <!-- 50 -->
      <g transform="translate(34.275 204.733764)scale(0.1 -0.1)">
       <use xlink:href="#DejaVuSans-35"/>
       <use x="63.623047" xlink:href="#DejaVuSans-30"/>
      </g>
     </g>
    </g>
    <g id="ytick_3">
     <g id="line2d_10">
      <g>
       <use style="stroke:#000000;stroke-width:0.8;" x="54" xlink:href="#m65150c81ea" y="159.752727"/>
      </g>
     </g>
     <g id="text_10">
      <!-- 100 -->
      <g transform="translate(27.9125 163.551946)scale(0.1 -0.1)">
       <use xlink:href="#DejaVuSans-31"/>
       <use x="63.623047" xlink:href="#DejaVuSans-30"/>
       <use x="127.246094" xlink:href="#DejaVuSans-30"/>
      </g>
     </g>
    </g>
    <g id="ytick_4">
     <g id="line2d_11">
      <g>
       <use style="stroke:#000000;stroke-width:0.8;" x="54" xlink:href="#m65150c81ea" y="118.570909"/>
      </g>
     </g>
     <g id="text_11">
      <!-- 150 -->
      <g transform="translate(27.9125 122.370128)scale(0.1 -0.1)">
       <use xlink:href="#DejaVuSans-31"/>
       <use x="63.623047" xlink:href="#DejaVuSans-35"/>
       <use x="127.246094" xlink:href="#DejaVuSans-30"/>
      </g>
     </g>
    </g>
    <g id="ytick_5">
     <g id="line2d_12">
      <g>
       <use style="stroke:#000000;stroke-width:0.8;" x="54" xlink:href="#m65150c81ea" y="77.389091"/>
      </g>
     </g>
     <g id="text_12">
      <!-- 200 -->
      <g transform="translate(27.9125 81.18831)scale(0.1 -0.1)">
       <use xlink:href="#DejaVuSans-32"/>
       <use x="63.623047" xlink:href="#DejaVuSans-30"/>
       <use x="127.246094" xlink:href="#DejaVuSans-30"/>
      </g>
     </g>
    </g>
    <g id="ytick_6">
     <g id="line2d_13">
      <g>
       <use style="stroke:#000000;stroke-width:0.8;" x="54" xlink:href="#m65150c81ea" y="36.207273"/>
      </g>
     </g>
     <g id="text_13">
      <!-- 250 -->
      <g transform="translate(27.9125 40.006491)scale(0.1 -0.1)">
       <use xlink:href="#DejaVuSans-32"/>
       <use x="63.623047" xlink:href="#DejaVuSans-35"/>
       <use x="127.246094" xlink:href="#DejaVuSans-30"/>
      </g>
     </g>
    </g>
   </g>
   <g id="line2d_14">
    <defs>
     <path d="M 0 3 
C 0.795609 3 1.55874 2.683901 2.12132 2.12132 
C 2.683901 1.55874 3 0.795609 3 0 
C 3 -0.795609 2.683901 -1.55874 2.12132 -2.12132 
C 1.55874 -2.683901 0.795609 -3 0 -3 
C -0.795609 -3 -1.55874 -2.683901 -2.12132 -2.12132 
C -2.683901 -1.55874 -3 -0.795609 -3 0 
C -3 0.795609 -2.683901 1.55874 -2.12132 2.12132 
C -1.55874 2.683901 -0.795609 3 0 3 
z
" id="mc6c26b11ff" style="stroke:#ff0000;"/>
    </defs>
    <g clip-path="url(#p0c74710b96)">
     <use style="fill:#ff0000;stroke:#ff0000;" x="69.218182" xlink:href="#mc6c26b11ff" y="48.229835"/>
     <use style="fill:#ff0000;stroke:#ff0000;" x="72.388636" xlink:href="#mc6c26b11ff" y="129.55245"/>
     <use style="fill:#ff0000;stroke:#ff0000;" x="75.559091" xlink:href="#mc6c26b11ff" y="177.233939"/>
     <use style="fill:#ff0000;stroke:#ff0000;" x="81.9" xlink:href="#mc6c26b11ff" y="209.581298"/>
     <use style="fill:#ff0000;stroke:#ff0000;" x="98.809091" xlink:href="#mc6c26b11ff" y="229.454025"/>
     <use style="fill:#ff0000;stroke:#ff0000;" x="101.979545" xlink:href="#mc6c26b11ff" y="229.647916"/>
     <use style="fill:#ff0000;stroke:#ff0000;" x="105.15" xlink:href="#mc6c26b11ff" y="230.178521"/>
     <use style="fill:#ff0000;stroke:#ff0000;" x="112.125" xlink:href="#mc6c26b11ff" y="230.715255"/>
     <use style="fill:#ff0000;stroke:#ff0000;" x="162.218182" xlink:href="#mc6c26b11ff" y="231.88027"/>
     <use style="fill:#ff0000;stroke:#ff0000;" x="373.581818" xlink:href="#mc6c26b11ff" y="233.948627"/>
    </g>
   </g>
   <g id="line2d_15">
    <defs>
     <path d="M 0 3 
C 0.795609 3 1.55874 2.683901 2.12132 2.12132 
C 2.683901 1.55874 3 0.795609 3 0 
C 3 -0.795609 2.683901 -1.55874 2.12132 -2.12132 
C 1.55874 -2.683901 0.795609 -3 0 -3 
C -0.795609 -3 -1.55874 -2.683901 -2.12132 -2.12132 
C -2.683901 -1.55874 -3 -0.795609 -3 0 
C -3 0.795609 -2.683901 1.55874 -2.12132 2.12132 
C -1.55874 2.683901 -0.795609 3 0 3 
z
" id="m10938e7e09" style="stroke:#0000ff;"/>
    </defs>
    <g clip-path="url(#p0c74710b96)">
     <use style="fill:#0000ff;stroke:#0000ff;" x="69.218182" xlink:href="#m10938e7e09" y="242.116364"/>
     <use style="fill:#0000ff;stroke:#0000ff;" x="72.388636" xlink:href="#m10938e7e09" y="213.177271"/>
     <use style="fill:#0000ff;stroke:#0000ff;" x="75.559091" xlink:href="#m10938e7e09" y="192.884594"/>
     <use style="fill:#0000ff;stroke:#0000ff;" x="81.9" xlink:href="#m10938e7e09" y="175.72234"/>
     <use style="fill:#0000ff;stroke:#0000ff;" x="98.809091" xlink:href="#m10938e7e09" y="171.764107"/>
     <use style="fill:#0000ff;stroke:#0000ff;" x="101.979545" xlink:href="#m10938e7e09" y="177.531519"/>
     <use style="fill:#0000ff;stroke:#0000ff;" x="105.15" xlink:href="#m10938e7e09" y="182.701713"/>
     <use style="fill:#0000ff;stroke:#0000ff;" x="112.125" xlink:href="#m10938e7e09" y="186.878477"/>
     <use style="fill:#0000ff;stroke:#0000ff;" x="162.218182" xlink:href="#m10938e7e09" y="194.674019"/>
     <use style="fill:#0000ff;stroke:#0000ff;" x="373.581818" xlink:href="#m10938e7e09" y="200.173058"/>
    </g>
   </g>
   <g id="line2d_16">
    <defs>
     <path d="M 0 3 
C 0.795609 3 1.55874 2.683901 2.12132 2.12132 
C 2.683901 1.55874 3 0.795609 3 0 
C 3 -0.795609 2.683901 -1.55874 2.12132 -2.12132 
C 1.55874 -2.683901 0.795609 -3 0 -3 
C -0.795609 -3 -1.55874 -2.683901 -2.12132 -2.12132 
C -2.683901 -1.55874 -3 -0.795609 -3 0 
C -3 0.795609 -2.683901 1.55874 -2.12132 2.12132 
C -1.55874 2.683901 -0.795609 3 0 3 
z
" id="m7870bdbbe7" style="stroke:#008000;"/>
    </defs>
    <g clip-path="url(#p0c74710b96)">
     <use style="fill:#008000;stroke:#008000;" x="69.218182" xlink:href="#m7870bdbbe7" y="242.116364"/>
     <use style="fill:#008000;stroke:#008000;" x="72.388636" xlink:href="#m7870bdbbe7" y="242.116364"/>
     <use style="fill:#008000;stroke:#008000;" x="75.559091" xlink:href="#m7870bdbbe7" y="242.116364"/>
     <use style="fill:#008000;stroke:#008000;" x="81.9" xlink:href="#m7870bdbbe7" y="242.116364"/>
     <use style="fill:#008000;stroke:#008000;" x="98.809091" xlink:href="#m7870bdbbe7" y="242.116364"/>
     <use style="fill:#008000;stroke:#008000;" x="101.979545" xlink:href="#m7870bdbbe7" y="236.528039"/>
     <use style="fill:#008000;stroke:#008000;" x="105.15" xlink:href="#m7870bdbbe7" y="232.787994"/>
     <use style="fill:#008000;stroke:#008000;" x="112.125" xlink:href="#m7870bdbbe7" y="227.464902"/>
     <use style="fill:#008000;stroke:#008000;" x="162.218182" xlink:href="#m7870bdbbe7" y="217.346828"/>
     <use style="fill:#008000;stroke:#008000;" x="373.581818" xlink:href="#m7870bdbbe7" y="212.243746"/>
    </g>
   </g>
   <g id="line2d_17">
    <path clip-path="url(#p0c74710b96)" d="M 69.218182 242.116364 
L 72.388636 242.116364 
L 75.559091 242.116364 
L 81.9 242.116364 
L 98.809091 242.116364 
L 101.979545 232.999017 
L 105.15 226.48542 
L 112.125 217.96722 
L 162.218182 211.047642 
L 373.581818 217.920101 
" style="fill:none;stroke:#008000;stroke-dasharray:14.8,6.4;stroke-dashoffset:0;stroke-width:4;"/>
   </g>
   <g id="line2d_18">
    <path clip-path="url(#p0c74710b96)" d="M 69.218182 44.443636 
L 72.388636 143.404921 
L 75.559091 175.910897 
L 81.9 201.355297 
L 98.809091 219.628458 
L 101.979545 221.02038 
L 105.15 222.231259 
L 112.125 224.365216 
L 162.218182 229.835329 
L 373.581818 231.969332 
" style="fill:none;stroke:#ff0000;stroke-dasharray:14.8,6.4;stroke-dashoffset:0;stroke-width:4;"/>
   </g>
   <g id="line2d_19">
    <path clip-path="url(#p0c74710b96)" d="M 69.218182 242.116364 
L 72.388636 192.83423 
L 75.559091 176.962764 
L 81.9 165.184486 
L 98.809091 158.883465 
L 101.979545 167.818329 
L 105.15 174.190391 
L 112.125 182.551539 
L 162.218182 192.165335 
L 373.581818 203.452911 
" style="fill:none;stroke:#0000ff;stroke-dasharray:14.8,6.4;stroke-dashoffset:0;stroke-width:4;"/>
   </g>
   <g id="patch_3">
    <path d="M 54 252 
L 54 34.56 
" style="fill:none;stroke:#000000;stroke-linecap:square;stroke-linejoin:miter;stroke-width:0.8;"/>
   </g>
   <g id="patch_4">
    <path d="M 388.8 252 
L 388.8 34.56 
" style="fill:none;stroke:#000000;stroke-linecap:square;stroke-linejoin:miter;stroke-width:0.8;"/>
   </g>
   <g id="patch_5">
    <path d="M 54 252 
L 388.8 252 
" style="fill:none;stroke:#000000;stroke-linecap:square;stroke-linejoin:miter;stroke-width:0.8;"/>
   </g>
   <g id="patch_6">
    <path d="M 54 34.56 
L 388.8 34.56 
" style="fill:none;stroke:#000000;stroke-linecap:square;stroke-linejoin:miter;stroke-width:0.8;"/>
   </g>
   <g id="legend_1">
    <g id="patch_7">
     <path d="M 162.115938 169.05625 
L 379 169.05625 
Q 381.8 169.05625 381.8 166.25625 
L 381.8 44.36 
Q 381.8 41.56 379 41.56 
L 162.115938 41.56 
Q 159.315938 41.56 159.315938 44.36 
L 159.315938 166.25625 
Q 159.315938 169.05625 162.115938 169.05625 
z
" style="fill:#f0f0f0;opacity:0.8;stroke:#cccccc;stroke-linejoin:miter;stroke-width:0.5;"/>
    </g>
    <g id="line2d_20"/>
    <g id="line2d_21">
     <g>
      <use style="fill:#ff0000;stroke:#ff0000;" x="178.915938" xlink:href="#mc6c26b11ff" y="52.897813"/>
     </g>
    </g>
    <g id="text_14">
     <!-- bunatal measured -->
     <g transform="translate(204.115938 57.797813)scale(0.14 -0.14)">
      <defs>
       <path d="M 3116 1747 
Q 3116 2381 2855 2742 
Q 2594 3103 2138 3103 
Q 1681 3103 1420 2742 
Q 1159 2381 1159 1747 
Q 1159 1113 1420 752 
Q 1681 391 2138 391 
Q 2594 391 2855 752 
Q 3116 1113 3116 1747 
z
M 1159 2969 
Q 1341 3281 1617 3432 
Q 1894 3584 2278 3584 
Q 2916 3584 3314 3078 
Q 3713 2572 3713 1747 
Q 3713 922 3314 415 
Q 2916 -91 2278 -91 
Q 1894 -91 1617 61 
Q 1341 213 1159 525 
L 1159 0 
L 581 0 
L 581 4863 
L 1159 4863 
L 1159 2969 
z
" id="DejaVuSans-62" transform="scale(0.015625)"/>
       <path d="M 544 1381 
L 544 3500 
L 1119 3500 
L 1119 1403 
Q 1119 906 1312 657 
Q 1506 409 1894 409 
Q 2359 409 2629 706 
Q 2900 1003 2900 1516 
L 2900 3500 
L 3475 3500 
L 3475 0 
L 2900 0 
L 2900 538 
Q 2691 219 2414 64 
Q 2138 -91 1772 -91 
Q 1169 -91 856 284 
Q 544 659 544 1381 
z
M 1991 3584 
L 1991 3584 
z
" id="DejaVuSans-75" transform="scale(0.015625)"/>
       <path d="M 3513 2113 
L 3513 0 
L 2938 0 
L 2938 2094 
Q 2938 2591 2744 2837 
Q 2550 3084 2163 3084 
Q 1697 3084 1428 2787 
Q 1159 2491 1159 1978 
L 1159 0 
L 581 0 
L 581 3500 
L 1159 3500 
L 1159 2956 
Q 1366 3272 1645 3428 
Q 1925 3584 2291 3584 
Q 2894 3584 3203 3211 
Q 3513 2838 3513 2113 
z
" id="DejaVuSans-6e" transform="scale(0.015625)"/>
       <path d="M 2194 1759 
Q 1497 1759 1228 1600 
Q 959 1441 959 1056 
Q 959 750 1161 570 
Q 1363 391 1709 391 
Q 2188 391 2477 730 
Q 2766 1069 2766 1631 
L 2766 1759 
L 2194 1759 
z
M 3341 1997 
L 3341 0 
L 2766 0 
L 2766 531 
Q 2569 213 2275 61 
Q 1981 -91 1556 -91 
Q 1019 -91 701 211 
Q 384 513 384 1019 
Q 384 1609 779 1909 
Q 1175 2209 1959 2209 
L 2766 2209 
L 2766 2266 
Q 2766 2663 2505 2880 
Q 2244 3097 1772 3097 
Q 1472 3097 1187 3025 
Q 903 2953 641 2809 
L 641 3341 
Q 956 3463 1253 3523 
Q 1550 3584 1831 3584 
Q 2591 3584 2966 3190 
Q 3341 2797 3341 1997 
z
" id="DejaVuSans-61" transform="scale(0.015625)"/>
       <path d="M 1172 4494 
L 1172 3500 
L 2356 3500 
L 2356 3053 
L 1172 3053 
L 1172 1153 
Q 1172 725 1289 603 
Q 1406 481 1766 481 
L 2356 481 
L 2356 0 
L 1766 0 
Q 1100 0 847 248 
Q 594 497 594 1153 
L 594 3053 
L 172 3053 
L 172 3500 
L 594 3500 
L 594 4494 
L 1172 4494 
z
" id="DejaVuSans-74" transform="scale(0.015625)"/>
       <path d="M 603 4863 
L 1178 4863 
L 1178 0 
L 603 0 
L 603 4863 
z
" id="DejaVuSans-6c" transform="scale(0.015625)"/>
       <path id="DejaVuSans-20" transform="scale(0.015625)"/>
       <path d="M 3328 2828 
Q 3544 3216 3844 3400 
Q 4144 3584 4550 3584 
Q 5097 3584 5394 3201 
Q 5691 2819 5691 2113 
L 5691 0 
L 5113 0 
L 5113 2094 
Q 5113 2597 4934 2840 
Q 4756 3084 4391 3084 
Q 3944 3084 3684 2787 
Q 3425 2491 3425 1978 
L 3425 0 
L 2847 0 
L 2847 2094 
Q 2847 2600 2669 2842 
Q 2491 3084 2119 3084 
Q 1678 3084 1418 2786 
Q 1159 2488 1159 1978 
L 1159 0 
L 581 0 
L 581 3500 
L 1159 3500 
L 1159 2956 
Q 1356 3278 1631 3431 
Q 1906 3584 2284 3584 
Q 2666 3584 2933 3390 
Q 3200 3197 3328 2828 
z
" id="DejaVuSans-6d" transform="scale(0.015625)"/>
       <path d="M 3597 1894 
L 3597 1613 
L 953 1613 
Q 991 1019 1311 708 
Q 1631 397 2203 397 
Q 2534 397 2845 478 
Q 3156 559 3463 722 
L 3463 178 
Q 3153 47 2828 -22 
Q 2503 -91 2169 -91 
Q 1331 -91 842 396 
Q 353 884 353 1716 
Q 353 2575 817 3079 
Q 1281 3584 2069 3584 
Q 2775 3584 3186 3129 
Q 3597 2675 3597 1894 
z
M 3022 2063 
Q 3016 2534 2758 2815 
Q 2500 3097 2075 3097 
Q 1594 3097 1305 2825 
Q 1016 2553 972 2059 
L 3022 2063 
z
" id="DejaVuSans-65" transform="scale(0.015625)"/>
       <path d="M 2834 3397 
L 2834 2853 
Q 2591 2978 2328 3040 
Q 2066 3103 1784 3103 
Q 1356 3103 1142 2972 
Q 928 2841 928 2578 
Q 928 2378 1081 2264 
Q 1234 2150 1697 2047 
L 1894 2003 
Q 2506 1872 2764 1633 
Q 3022 1394 3022 966 
Q 3022 478 2636 193 
Q 2250 -91 1575 -91 
Q 1294 -91 989 -36 
Q 684 19 347 128 
L 347 722 
Q 666 556 975 473 
Q 1284 391 1588 391 
Q 1994 391 2212 530 
Q 2431 669 2431 922 
Q 2431 1156 2273 1281 
Q 2116 1406 1581 1522 
L 1381 1569 
Q 847 1681 609 1914 
Q 372 2147 372 2553 
Q 372 3047 722 3315 
Q 1072 3584 1716 3584 
Q 2034 3584 2315 3537 
Q 2597 3491 2834 3397 
z
" id="DejaVuSans-73" transform="scale(0.015625)"/>
       <path d="M 2631 2963 
Q 2534 3019 2420 3045 
Q 2306 3072 2169 3072 
Q 1681 3072 1420 2755 
Q 1159 2438 1159 1844 
L 1159 0 
L 581 0 
L 581 3500 
L 1159 3500 
L 1159 2956 
Q 1341 3275 1631 3429 
Q 1922 3584 2338 3584 
Q 2397 3584 2469 3576 
Q 2541 3569 2628 3553 
L 2631 2963 
z
" id="DejaVuSans-72" transform="scale(0.015625)"/>
       <path d="M 2906 2969 
L 2906 4863 
L 3481 4863 
L 3481 0 
L 2906 0 
L 2906 525 
Q 2725 213 2448 61 
Q 2172 -91 1784 -91 
Q 1150 -91 751 415 
Q 353 922 353 1747 
Q 353 2572 751 3078 
Q 1150 3584 1784 3584 
Q 2172 3584 2448 3432 
Q 2725 3281 2906 2969 
z
M 947 1747 
Q 947 1113 1208 752 
Q 1469 391 1925 391 
Q 2381 391 2643 752 
Q 2906 1113 2906 1747 
Q 2906 2381 2643 2742 
Q 2381 3103 1925 3103 
Q 1469 3103 1208 2742 
Q 947 2381 947 1747 
z
" id="DejaVuSans-64" transform="scale(0.015625)"/>
      </defs>
      <use xlink:href="#DejaVuSans-62"/>
      <use x="63.476562" xlink:href="#DejaVuSans-75"/>
      <use x="126.855469" xlink:href="#DejaVuSans-6e"/>
      <use x="190.234375" xlink:href="#DejaVuSans-61"/>
      <use x="251.513672" xlink:href="#DejaVuSans-74"/>
      <use x="290.722656" xlink:href="#DejaVuSans-61"/>
      <use x="352.001953" xlink:href="#DejaVuSans-6c"/>
      <use x="379.785156" xlink:href="#DejaVuSans-20"/>
      <use x="411.572266" xlink:href="#DejaVuSans-6d"/>
      <use x="508.984375" xlink:href="#DejaVuSans-65"/>
      <use x="570.507812" xlink:href="#DejaVuSans-61"/>
      <use x="631.787109" xlink:href="#DejaVuSans-73"/>
      <use x="683.886719" xlink:href="#DejaVuSans-75"/>
      <use x="747.265625" xlink:href="#DejaVuSans-72"/>
      <use x="786.128906" xlink:href="#DejaVuSans-65"/>
      <use x="847.652344" xlink:href="#DejaVuSans-64"/>
     </g>
    </g>
    <g id="line2d_22"/>
    <g id="line2d_23">
     <g>
      <use style="fill:#0000ff;stroke:#0000ff;" x="178.915938" xlink:href="#m10938e7e09" y="73.447188"/>
     </g>
    </g>
    <g id="text_15">
     <!-- butyroin measured -->
     <g transform="translate(204.115938 78.347188)scale(0.14 -0.14)">
      <defs>
       <path d="M 2059 -325 
Q 1816 -950 1584 -1140 
Q 1353 -1331 966 -1331 
L 506 -1331 
L 506 -850 
L 844 -850 
Q 1081 -850 1212 -737 
Q 1344 -625 1503 -206 
L 1606 56 
L 191 3500 
L 800 3500 
L 1894 763 
L 2988 3500 
L 3597 3500 
L 2059 -325 
z
" id="DejaVuSans-79" transform="scale(0.015625)"/>
       <path d="M 1959 3097 
Q 1497 3097 1228 2736 
Q 959 2375 959 1747 
Q 959 1119 1226 758 
Q 1494 397 1959 397 
Q 2419 397 2687 759 
Q 2956 1122 2956 1747 
Q 2956 2369 2687 2733 
Q 2419 3097 1959 3097 
z
M 1959 3584 
Q 2709 3584 3137 3096 
Q 3566 2609 3566 1747 
Q 3566 888 3137 398 
Q 2709 -91 1959 -91 
Q 1206 -91 779 398 
Q 353 888 353 1747 
Q 353 2609 779 3096 
Q 1206 3584 1959 3584 
z
" id="DejaVuSans-6f" transform="scale(0.015625)"/>
       <path d="M 603 3500 
L 1178 3500 
L 1178 0 
L 603 0 
L 603 3500 
z
M 603 4863 
L 1178 4863 
L 1178 4134 
L 603 4134 
L 603 4863 
z
" id="DejaVuSans-69" transform="scale(0.015625)"/>
      </defs>
      <use xlink:href="#DejaVuSans-62"/>
      <use x="63.476562" xlink:href="#DejaVuSans-75"/>
      <use x="126.855469" xlink:href="#DejaVuSans-74"/>
      <use x="166.064453" xlink:href="#DejaVuSans-79"/>
      <use x="225.244141" xlink:href="#DejaVuSans-72"/>
      <use x="264.107422" xlink:href="#DejaVuSans-6f"/>
      <use x="325.289062" xlink:href="#DejaVuSans-69"/>
      <use x="353.072266" xlink:href="#DejaVuSans-6e"/>
      <use x="416.451172" xlink:href="#DejaVuSans-20"/>
      <use x="448.238281" xlink:href="#DejaVuSans-6d"/>
      <use x="545.650391" xlink:href="#DejaVuSans-65"/>
      <use x="607.173828" xlink:href="#DejaVuSans-61"/>
      <use x="668.453125" xlink:href="#DejaVuSans-73"/>
      <use x="720.552734" xlink:href="#DejaVuSans-75"/>
      <use x="783.931641" xlink:href="#DejaVuSans-72"/>
      <use x="822.794922" xlink:href="#DejaVuSans-65"/>
      <use x="884.318359" xlink:href="#DejaVuSans-64"/>
     </g>
    </g>
    <g id="line2d_24"/>
    <g id="line2d_25">
     <g>
      <use style="fill:#008000;stroke:#008000;" x="178.915938" xlink:href="#m7870bdbbe7" y="93.996563"/>
     </g>
    </g>
    <g id="text_16">
     <!-- doppelalkohol measured -->
     <g transform="translate(204.115938 98.896563)scale(0.14 -0.14)">
      <defs>
       <path d="M 1159 525 
L 1159 -1331 
L 581 -1331 
L 581 3500 
L 1159 3500 
L 1159 2969 
Q 1341 3281 1617 3432 
Q 1894 3584 2278 3584 
Q 2916 3584 3314 3078 
Q 3713 2572 3713 1747 
Q 3713 922 3314 415 
Q 2916 -91 2278 -91 
Q 1894 -91 1617 61 
Q 1341 213 1159 525 
z
M 3116 1747 
Q 3116 2381 2855 2742 
Q 2594 3103 2138 3103 
Q 1681 3103 1420 2742 
Q 1159 2381 1159 1747 
Q 1159 1113 1420 752 
Q 1681 391 2138 391 
Q 2594 391 2855 752 
Q 3116 1113 3116 1747 
z
" id="DejaVuSans-70" transform="scale(0.015625)"/>
       <path d="M 581 4863 
L 1159 4863 
L 1159 1991 
L 2875 3500 
L 3609 3500 
L 1753 1863 
L 3688 0 
L 2938 0 
L 1159 1709 
L 1159 0 
L 581 0 
L 581 4863 
z
" id="DejaVuSans-6b" transform="scale(0.015625)"/>
       <path d="M 3513 2113 
L 3513 0 
L 2938 0 
L 2938 2094 
Q 2938 2591 2744 2837 
Q 2550 3084 2163 3084 
Q 1697 3084 1428 2787 
Q 1159 2491 1159 1978 
L 1159 0 
L 581 0 
L 581 4863 
L 1159 4863 
L 1159 2956 
Q 1366 3272 1645 3428 
Q 1925 3584 2291 3584 
Q 2894 3584 3203 3211 
Q 3513 2838 3513 2113 
z
" id="DejaVuSans-68" transform="scale(0.015625)"/>
      </defs>
      <use xlink:href="#DejaVuSans-64"/>
      <use x="63.476562" xlink:href="#DejaVuSans-6f"/>
      <use x="124.658203" xlink:href="#DejaVuSans-70"/>
      <use x="188.134766" xlink:href="#DejaVuSans-70"/>
      <use x="251.611328" xlink:href="#DejaVuSans-65"/>
      <use x="313.134766" xlink:href="#DejaVuSans-6c"/>
      <use x="340.917969" xlink:href="#DejaVuSans-61"/>
      <use x="402.197266" xlink:href="#DejaVuSans-6c"/>
      <use x="429.980469" xlink:href="#DejaVuSans-6b"/>
      <use x="484.265625" xlink:href="#DejaVuSans-6f"/>
      <use x="545.447266" xlink:href="#DejaVuSans-68"/>
      <use x="608.826172" xlink:href="#DejaVuSans-6f"/>
      <use x="670.007812" xlink:href="#DejaVuSans-6c"/>
      <use x="697.791016" xlink:href="#DejaVuSans-20"/>
      <use x="729.578125" xlink:href="#DejaVuSans-6d"/>
      <use x="826.990234" xlink:href="#DejaVuSans-65"/>
      <use x="888.513672" xlink:href="#DejaVuSans-61"/>
      <use x="949.792969" xlink:href="#DejaVuSans-73"/>
      <use x="1001.892578" xlink:href="#DejaVuSans-75"/>
      <use x="1065.271484" xlink:href="#DejaVuSans-72"/>
      <use x="1104.134766" xlink:href="#DejaVuSans-65"/>
      <use x="1165.658203" xlink:href="#DejaVuSans-64"/>
     </g>
    </g>
    <g id="line2d_26">
     <path d="M 164.915938 114.545938 
L 192.915938 114.545938 
" style="fill:none;stroke:#008000;stroke-dasharray:14.8,6.4;stroke-dashoffset:0;stroke-width:4;"/>
    </g>
    <g id="line2d_27"/>
    <g id="text_17">
     <!-- doppelalkohol modelled -->
     <g transform="translate(204.115938 119.445938)scale(0.14 -0.14)">
      <use xlink:href="#DejaVuSans-64"/>
      <use x="63.476562" xlink:href="#DejaVuSans-6f"/>
      <use x="124.658203" xlink:href="#DejaVuSans-70"/>
      <use x="188.134766" xlink:href="#DejaVuSans-70"/>
      <use x="251.611328" xlink:href="#DejaVuSans-65"/>
      <use x="313.134766" xlink:href="#DejaVuSans-6c"/>
      <use x="340.917969" xlink:href="#DejaVuSans-61"/>
      <use x="402.197266" xlink:href="#DejaVuSans-6c"/>
      <use x="429.980469" xlink:href="#DejaVuSans-6b"/>
      <use x="484.265625" xlink:href="#DejaVuSans-6f"/>
      <use x="545.447266" xlink:href="#DejaVuSans-68"/>
      <use x="608.826172" xlink:href="#DejaVuSans-6f"/>
      <use x="670.007812" xlink:href="#DejaVuSans-6c"/>
      <use x="697.791016" xlink:href="#DejaVuSans-20"/>
      <use x="729.578125" xlink:href="#DejaVuSans-6d"/>
      <use x="826.990234" xlink:href="#DejaVuSans-6f"/>
      <use x="888.171875" xlink:href="#DejaVuSans-64"/>
      <use x="951.648438" xlink:href="#DejaVuSans-65"/>
      <use x="1013.171875" xlink:href="#DejaVuSans-6c"/>
      <use x="1040.955078" xlink:href="#DejaVuSans-6c"/>
      <use x="1068.738281" xlink:href="#DejaVuSans-65"/>
      <use x="1130.261719" xlink:href="#DejaVuSans-64"/>
     </g>
    </g>
    <g id="line2d_28">
     <path d="M 164.915938 135.095313 
L 192.915938 135.095313 
" style="fill:none;stroke:#ff0000;stroke-dasharray:14.8,6.4;stroke-dashoffset:0;stroke-width:4;"/>
    </g>
    <g id="line2d_29"/>
    <g id="text_18">
     <!-- bunatal modelled -->
     <g transform="translate(204.115938 139.995313)scale(0.14 -0.14)">
      <use xlink:href="#DejaVuSans-62"/>
      <use x="63.476562" xlink:href="#DejaVuSans-75"/>
      <use x="126.855469" xlink:href="#DejaVuSans-6e"/>
      <use x="190.234375" xlink:href="#DejaVuSans-61"/>
      <use x="251.513672" xlink:href="#DejaVuSans-74"/>
      <use x="290.722656" xlink:href="#DejaVuSans-61"/>
      <use x="352.001953" xlink:href="#DejaVuSans-6c"/>
      <use x="379.785156" xlink:href="#DejaVuSans-20"/>
      <use x="411.572266" xlink:href="#DejaVuSans-6d"/>
      <use x="508.984375" xlink:href="#DejaVuSans-6f"/>
      <use x="570.166016" xlink:href="#DejaVuSans-64"/>
      <use x="633.642578" xlink:href="#DejaVuSans-65"/>
      <use x="695.166016" xlink:href="#DejaVuSans-6c"/>
      <use x="722.949219" xlink:href="#DejaVuSans-6c"/>
      <use x="750.732422" xlink:href="#DejaVuSans-65"/>
      <use x="812.255859" xlink:href="#DejaVuSans-64"/>
     </g>
    </g>
    <g id="line2d_30">
     <path d="M 164.915938 155.644688 
L 192.915938 155.644688 
" style="fill:none;stroke:#0000ff;stroke-dasharray:14.8,6.4;stroke-dashoffset:0;stroke-width:4;"/>
    </g>
    <g id="line2d_31"/>
    <g id="text_19">
     <!-- butyroin modelled -->
     <g transform="translate(204.115938 160.544688)scale(0.14 -0.14)">
      <use xlink:href="#DejaVuSans-62"/>
      <use x="63.476562" xlink:href="#DejaVuSans-75"/>
      <use x="126.855469" xlink:href="#DejaVuSans-74"/>
      <use x="166.064453" xlink:href="#DejaVuSans-79"/>
      <use x="225.244141" xlink:href="#DejaVuSans-72"/>
      <use x="264.107422" xlink:href="#DejaVuSans-6f"/>
      <use x="325.289062" xlink:href="#DejaVuSans-69"/>
      <use x="353.072266" xlink:href="#DejaVuSans-6e"/>
      <use x="416.451172" xlink:href="#DejaVuSans-20"/>
      <use x="448.238281" xlink:href="#DejaVuSans-6d"/>
      <use x="545.650391" xlink:href="#DejaVuSans-6f"/>
      <use x="606.832031" xlink:href="#DejaVuSans-64"/>
      <use x="670.308594" xlink:href="#DejaVuSans-65"/>
      <use x="731.832031" xlink:href="#DejaVuSans-6c"/>
      <use x="759.615234" xlink:href="#DejaVuSans-6c"/>
      <use x="787.398438" xlink:href="#DejaVuSans-65"/>
      <use x="848.921875" xlink:href="#DejaVuSans-64"/>
     </g>
    </g>
   </g>
  </g>
 </g>
 <defs>
  <clipPath id="p0c74710b96">
   <rect height="217.44" width="334.8" x="54" y="34.56"/>
  </clipPath>
 </defs>
</svg>
