<?xml version="1.0" encoding="utf-8" standalone="no"?>
<!DOCTYPE svg PUBLIC "-//W3C//DTD SVG 1.1//EN"
  "http://www.w3.org/Graphics/SVG/1.1/DTD/svg11.dtd">
<svg height="288pt" version="1.1" viewBox="0 0 432 288" width="432pt" xmlns="http://www.w3.org/2000/svg" xmlns:xlink="http://www.w3.org/1999/xlink">
 <metadata>
  <rdf:RDF xmlns:cc="http://creativecommons.org/ns#" xmlns:dc="http://purl.org/dc/elements/1.1/" xmlns:rdf="http://www.w3.org/1999/02/22-rdf-syntax-ns#">
   <cc:Work>
    <dc:type rdf:resource="http://purl.org/dc/dcmitype/StillImage"/>
    <dc:date>2022-06-28T23:32:49.237299</dc:date>
    <dc:format>image/svg+xml</dc:format>
    <dc:creator>
     <cc:Agent>
      <dc:title>Matplotlib v3.4.3, https://matplotlib.org/</dc:title>
     </cc:Agent>
    </dc:creator>
   </cc:Work>
  </rdf:RDF>
 </metadata>
 <defs>
  <style type="text/css">*{stroke-linecap:butt;stroke-linejoin:round;}</style>
 </defs>
 <g id="figure_1">
  <g id="patch_1">
   <path d="M 0 288 
L 432 288 
L 432 0 
L 0 0 
z
" style="fill:#f0f0f0;"/>
  </g>
  <g id="axes_1">
   <g id="patch_2">
    <path d="M 34.56 267.84 
L 410.4 267.84 
L 410.4 34.56 
L 34.56 34.56 
z
" style="fill:#f0f0f0;"/>
   </g>
   <g id="matplotlib.axis_1">
    <g id="xtick_1">
     <g id="line2d_1">
      <path clip-path="url(#pe65a06a7b3)" d="M 51.643636 267.84 
L 51.643636 34.56 
" style="fill:none;stroke:#cbcbcb;"/>
     </g>
     <g id="line2d_2"/>
     <g id="text_1">
      <!-- 0 -->
      <g style="fill:#262626;" transform="translate(47.75098 281.360938)scale(0.14 -0.14)">
       <defs>
        <path d="M 266 2259 
Q 266 3072 433 3567 
Q 600 4063 929 4331 
Q 1259 4600 1759 4600 
Q 2128 4600 2406 4451 
Q 2684 4303 2865 4023 
Q 3047 3744 3150 3342 
Q 3253 2941 3253 2259 
Q 3253 1453 3087 958 
Q 2922 463 2592 192 
Q 2263 -78 1759 -78 
Q 1097 -78 719 397 
Q 266 969 266 2259 
z
M 844 2259 
Q 844 1131 1108 757 
Q 1372 384 1759 384 
Q 2147 384 2411 759 
Q 2675 1134 2675 2259 
Q 2675 3391 2411 3762 
Q 2147 4134 1753 4134 
Q 1366 4134 1134 3806 
Q 844 3388 844 2259 
z
" id="ArialMT-30" transform="scale(0.015625)"/>
       </defs>
       <use xlink:href="#ArialMT-30"/>
      </g>
     </g>
    </g>
    <g id="xtick_2">
     <g id="line2d_3">
      <path clip-path="url(#pe65a06a7b3)" d="M 119.978182 267.84 
L 119.978182 34.56 
" style="fill:none;stroke:#cbcbcb;"/>
     </g>
     <g id="line2d_4"/>
     <g id="text_2">
      <!-- 1 -->
      <g style="fill:#262626;" transform="translate(116.085526 281.360938)scale(0.14 -0.14)">
       <defs>
        <path d="M 2384 0 
L 1822 0 
L 1822 3584 
Q 1619 3391 1289 3197 
Q 959 3003 697 2906 
L 697 3450 
Q 1169 3672 1522 3987 
Q 1875 4303 2022 4600 
L 2384 4600 
L 2384 0 
z
" id="ArialMT-31" transform="scale(0.015625)"/>
       </defs>
       <use xlink:href="#ArialMT-31"/>
      </g>
     </g>
    </g>
    <g id="xtick_3">
     <g id="line2d_5">
      <path clip-path="url(#pe65a06a7b3)" d="M 188.312727 267.84 
L 188.312727 34.56 
" style="fill:none;stroke:#cbcbcb;"/>
     </g>
     <g id="line2d_6"/>
     <g id="text_3">
      <!-- 2 -->
      <g style="fill:#262626;" transform="translate(184.420071 281.360938)scale(0.14 -0.14)">
       <defs>
        <path d="M 3222 541 
L 3222 0 
L 194 0 
Q 188 203 259 391 
Q 375 700 629 1000 
Q 884 1300 1366 1694 
Q 2113 2306 2375 2664 
Q 2638 3022 2638 3341 
Q 2638 3675 2398 3904 
Q 2159 4134 1775 4134 
Q 1369 4134 1125 3890 
Q 881 3647 878 3216 
L 300 3275 
Q 359 3922 746 4261 
Q 1134 4600 1788 4600 
Q 2447 4600 2831 4234 
Q 3216 3869 3216 3328 
Q 3216 3053 3103 2787 
Q 2991 2522 2730 2228 
Q 2469 1934 1863 1422 
Q 1356 997 1212 845 
Q 1069 694 975 541 
L 3222 541 
z
" id="ArialMT-32" transform="scale(0.015625)"/>
       </defs>
       <use xlink:href="#ArialMT-32"/>
      </g>
     </g>
    </g>
    <g id="xtick_4">
     <g id="line2d_7">
      <path clip-path="url(#pe65a06a7b3)" d="M 256.647273 267.84 
L 256.647273 34.56 
" style="fill:none;stroke:#cbcbcb;"/>
     </g>
     <g id="line2d_8"/>
     <g id="text_4">
      <!-- 3 -->
      <g style="fill:#262626;" transform="translate(252.754616 281.360938)scale(0.14 -0.14)">
       <defs>
        <path d="M 269 1209 
L 831 1284 
Q 928 806 1161 595 
Q 1394 384 1728 384 
Q 2125 384 2398 659 
Q 2672 934 2672 1341 
Q 2672 1728 2419 1979 
Q 2166 2231 1775 2231 
Q 1616 2231 1378 2169 
L 1441 2663 
Q 1497 2656 1531 2656 
Q 1891 2656 2178 2843 
Q 2466 3031 2466 3422 
Q 2466 3731 2256 3934 
Q 2047 4138 1716 4138 
Q 1388 4138 1169 3931 
Q 950 3725 888 3313 
L 325 3413 
Q 428 3978 793 4289 
Q 1159 4600 1703 4600 
Q 2078 4600 2393 4439 
Q 2709 4278 2876 4000 
Q 3044 3722 3044 3409 
Q 3044 3113 2884 2869 
Q 2725 2625 2413 2481 
Q 2819 2388 3044 2092 
Q 3269 1797 3269 1353 
Q 3269 753 2831 336 
Q 2394 -81 1725 -81 
Q 1122 -81 723 278 
Q 325 638 269 1209 
z
" id="ArialMT-33" transform="scale(0.015625)"/>
       </defs>
       <use xlink:href="#ArialMT-33"/>
      </g>
     </g>
    </g>
    <g id="xtick_5">
     <g id="line2d_9">
      <path clip-path="url(#pe65a06a7b3)" d="M 324.981818 267.84 
L 324.981818 34.56 
" style="fill:none;stroke:#cbcbcb;"/>
     </g>
     <g id="line2d_10"/>
     <g id="text_5">
      <!-- 4 -->
      <g style="fill:#262626;" transform="translate(321.089162 281.360938)scale(0.14 -0.14)">
       <defs>
        <path d="M 2069 0 
L 2069 1097 
L 81 1097 
L 81 1613 
L 2172 4581 
L 2631 4581 
L 2631 1613 
L 3250 1613 
L 3250 1097 
L 2631 1097 
L 2631 0 
L 2069 0 
z
M 2069 1613 
L 2069 3678 
L 634 1613 
L 2069 1613 
z
" id="ArialMT-34" transform="scale(0.015625)"/>
       </defs>
       <use xlink:href="#ArialMT-34"/>
      </g>
     </g>
    </g>
    <g id="xtick_6">
     <g id="line2d_11">
      <path clip-path="url(#pe65a06a7b3)" d="M 393.316364 267.84 
L 393.316364 34.56 
" style="fill:none;stroke:#cbcbcb;"/>
     </g>
     <g id="line2d_12"/>
     <g id="text_6">
      <!-- 5 -->
      <g style="fill:#262626;" transform="translate(389.423707 281.360938)scale(0.14 -0.14)">
       <defs>
        <path d="M 266 1200 
L 856 1250 
Q 922 819 1161 601 
Q 1400 384 1738 384 
Q 2144 384 2425 690 
Q 2706 997 2706 1503 
Q 2706 1984 2436 2262 
Q 2166 2541 1728 2541 
Q 1456 2541 1237 2417 
Q 1019 2294 894 2097 
L 366 2166 
L 809 4519 
L 3088 4519 
L 3088 3981 
L 1259 3981 
L 1013 2750 
Q 1425 3038 1878 3038 
Q 2478 3038 2890 2622 
Q 3303 2206 3303 1553 
Q 3303 931 2941 478 
Q 2500 -78 1738 -78 
Q 1113 -78 717 272 
Q 322 622 266 1200 
z
" id="ArialMT-35" transform="scale(0.015625)"/>
       </defs>
       <use xlink:href="#ArialMT-35"/>
      </g>
     </g>
    </g>
   </g>
   <g id="matplotlib.axis_2">
    <g id="ytick_1">
     <g id="line2d_13">
      <path clip-path="url(#pe65a06a7b3)" d="M 34.56 257.236364 
L 410.4 257.236364 
" style="fill:none;stroke:#cbcbcb;"/>
     </g>
     <g id="line2d_14"/>
     <g id="text_7">
      <!-- 0 -->
      <g style="fill:#262626;" transform="translate(23.274688 262.246832)scale(0.14 -0.14)">
       <use xlink:href="#ArialMT-30"/>
      </g>
     </g>
    </g>
    <g id="ytick_2">
     <g id="line2d_15">
      <path clip-path="url(#pe65a06a7b3)" d="M 34.56 218.677686 
L 410.4 218.677686 
" style="fill:none;stroke:#cbcbcb;"/>
     </g>
     <g id="line2d_16"/>
     <g id="text_8">
      <!-- 2 -->
      <g style="fill:#262626;" transform="translate(23.274688 223.688155)scale(0.14 -0.14)">
       <use xlink:href="#ArialMT-32"/>
      </g>
     </g>
    </g>
    <g id="ytick_3">
     <g id="line2d_17">
      <path clip-path="url(#pe65a06a7b3)" d="M 34.56 180.119008 
L 410.4 180.119008 
" style="fill:none;stroke:#cbcbcb;"/>
     </g>
     <g id="line2d_18"/>
     <g id="text_9">
      <!-- 4 -->
      <g style="fill:#262626;" transform="translate(23.274688 185.129477)scale(0.14 -0.14)">
       <use xlink:href="#ArialMT-34"/>
      </g>
     </g>
    </g>
    <g id="ytick_4">
     <g id="line2d_19">
      <path clip-path="url(#pe65a06a7b3)" d="M 34.56 141.560331 
L 410.4 141.560331 
" style="fill:none;stroke:#cbcbcb;"/>
     </g>
     <g id="line2d_20"/>
     <g id="text_10">
      <!-- 6 -->
      <g style="fill:#262626;" transform="translate(23.274688 146.570799)scale(0.14 -0.14)">
       <defs>
        <path d="M 3184 3459 
L 2625 3416 
Q 2550 3747 2413 3897 
Q 2184 4138 1850 4138 
Q 1581 4138 1378 3988 
Q 1113 3794 959 3422 
Q 806 3050 800 2363 
Q 1003 2672 1297 2822 
Q 1591 2972 1913 2972 
Q 2475 2972 2870 2558 
Q 3266 2144 3266 1488 
Q 3266 1056 3080 686 
Q 2894 316 2569 119 
Q 2244 -78 1831 -78 
Q 1128 -78 684 439 
Q 241 956 241 2144 
Q 241 3472 731 4075 
Q 1159 4600 1884 4600 
Q 2425 4600 2770 4297 
Q 3116 3994 3184 3459 
z
M 888 1484 
Q 888 1194 1011 928 
Q 1134 663 1356 523 
Q 1578 384 1822 384 
Q 2178 384 2434 671 
Q 2691 959 2691 1453 
Q 2691 1928 2437 2201 
Q 2184 2475 1800 2475 
Q 1419 2475 1153 2201 
Q 888 1928 888 1484 
z
" id="ArialMT-36" transform="scale(0.015625)"/>
       </defs>
       <use xlink:href="#ArialMT-36"/>
      </g>
     </g>
    </g>
    <g id="ytick_5">
     <g id="line2d_21">
      <path clip-path="url(#pe65a06a7b3)" d="M 34.56 103.001653 
L 410.4 103.001653 
" style="fill:none;stroke:#cbcbcb;"/>
     </g>
     <g id="line2d_22"/>
     <g id="text_11">
      <!-- 8 -->
      <g style="fill:#262626;" transform="translate(23.274688 108.012122)scale(0.14 -0.14)">
       <defs>
        <path d="M 1131 2484 
Q 781 2613 612 2850 
Q 444 3088 444 3419 
Q 444 3919 803 4259 
Q 1163 4600 1759 4600 
Q 2359 4600 2725 4251 
Q 3091 3903 3091 3403 
Q 3091 3084 2923 2848 
Q 2756 2613 2416 2484 
Q 2838 2347 3058 2040 
Q 3278 1734 3278 1309 
Q 3278 722 2862 322 
Q 2447 -78 1769 -78 
Q 1091 -78 675 323 
Q 259 725 259 1325 
Q 259 1772 486 2073 
Q 713 2375 1131 2484 
z
M 1019 3438 
Q 1019 3113 1228 2906 
Q 1438 2700 1772 2700 
Q 2097 2700 2305 2904 
Q 2513 3109 2513 3406 
Q 2513 3716 2298 3927 
Q 2084 4138 1766 4138 
Q 1444 4138 1231 3931 
Q 1019 3725 1019 3438 
z
M 838 1322 
Q 838 1081 952 856 
Q 1066 631 1291 507 
Q 1516 384 1775 384 
Q 2178 384 2440 643 
Q 2703 903 2703 1303 
Q 2703 1709 2433 1975 
Q 2163 2241 1756 2241 
Q 1359 2241 1098 1978 
Q 838 1716 838 1322 
z
" id="ArialMT-38" transform="scale(0.015625)"/>
       </defs>
       <use xlink:href="#ArialMT-38"/>
      </g>
     </g>
    </g>
    <g id="ytick_6">
     <g id="line2d_23">
      <path clip-path="url(#pe65a06a7b3)" d="M 34.56 64.442975 
L 410.4 64.442975 
" style="fill:none;stroke:#cbcbcb;"/>
     </g>
     <g id="line2d_24"/>
     <g id="text_12">
      <!-- 10 -->
      <g style="fill:#262626;" transform="translate(15.489375 69.453444)scale(0.14 -0.14)">
       <use xlink:href="#ArialMT-31"/>
       <use x="55.615234" xlink:href="#ArialMT-30"/>
      </g>
     </g>
    </g>
   </g>
   <g id="line2d_25">
    <defs>
     <path d="M 0 3 
C 0.795609 3 1.55874 2.683901 2.12132 2.12132 
C 2.683901 1.55874 3 0.795609 3 0 
C 3 -0.795609 2.683901 -1.55874 2.12132 -2.12132 
C 1.55874 -2.683901 0.795609 -3 0 -3 
C -0.795609 -3 -1.55874 -2.683901 -2.12132 -2.12132 
C -2.683901 -1.55874 -3 -0.795609 -3 0 
C -3 0.795609 -2.683901 1.55874 -2.12132 2.12132 
C -1.55874 2.683901 -0.795609 3 0 3 
z
" id="m02a309ffa8" style="stroke:#ff0000;"/>
    </defs>
    <g clip-path="url(#pe65a06a7b3)">
     <use style="fill:#ff0000;stroke:#ff0000;" x="51.643636" xlink:href="#m02a309ffa8" y="47.260139"/>
     <use style="fill:#ff0000;stroke:#ff0000;" x="85.810909" xlink:href="#m02a309ffa8" y="84.150001"/>
     <use style="fill:#ff0000;stroke:#ff0000;" x="119.978182" xlink:href="#m02a309ffa8" y="116.376419"/>
     <use style="fill:#ff0000;stroke:#ff0000;" x="154.145455" xlink:href="#m02a309ffa8" y="146.728941"/>
     <use style="fill:#ff0000;stroke:#ff0000;" x="188.312727" xlink:href="#m02a309ffa8" y="173.371346"/>
     <use style="fill:#ff0000;stroke:#ff0000;" x="222.48" xlink:href="#m02a309ffa8" y="196.579641"/>
     <use style="fill:#ff0000;stroke:#ff0000;" x="256.647273" xlink:href="#m02a309ffa8" y="215.0344"/>
     <use style="fill:#ff0000;stroke:#ff0000;" x="290.814545" xlink:href="#m02a309ffa8" y="229.699599"/>
     <use style="fill:#ff0000;stroke:#ff0000;" x="324.981818" xlink:href="#m02a309ffa8" y="239.350817"/>
     <use style="fill:#ff0000;stroke:#ff0000;" x="359.149091" xlink:href="#m02a309ffa8" y="247.318968"/>
     <use style="fill:#ff0000;stroke:#ff0000;" x="393.316364" xlink:href="#m02a309ffa8" y="251.383716"/>
    </g>
   </g>
   <g id="line2d_26">
    <defs>
     <path d="M 0 3 
C 0.795609 3 1.55874 2.683901 2.12132 2.12132 
C 2.683901 1.55874 3 0.795609 3 0 
C 3 -0.795609 2.683901 -1.55874 2.12132 -2.12132 
C 1.55874 -2.683901 0.795609 -3 0 -3 
C -0.795609 -3 -1.55874 -2.683901 -2.12132 -2.12132 
C -2.683901 -1.55874 -3 -0.795609 -3 0 
C -3 0.795609 -2.683901 1.55874 -2.12132 2.12132 
C -1.55874 2.683901 -0.795609 3 0 3 
z
" id="me8dc755c8e" style="stroke:#0000ff;"/>
    </defs>
    <g clip-path="url(#pe65a06a7b3)">
     <use style="fill:#0000ff;stroke:#0000ff;" x="51.643636" xlink:href="#me8dc755c8e" y="256.636759"/>
     <use style="fill:#0000ff;stroke:#0000ff;" x="85.810909" xlink:href="#me8dc755c8e" y="220.91951"/>
     <use style="fill:#0000ff;stroke:#0000ff;" x="119.978182" xlink:href="#me8dc755c8e" y="187.216469"/>
     <use style="fill:#0000ff;stroke:#0000ff;" x="154.145455" xlink:href="#me8dc755c8e" y="156.752071"/>
     <use style="fill:#0000ff;stroke:#0000ff;" x="188.312727" xlink:href="#me8dc755c8e" y="127.795417"/>
     <use style="fill:#0000ff;stroke:#0000ff;" x="222.48" xlink:href="#me8dc755c8e" y="104.297304"/>
     <use style="fill:#0000ff;stroke:#0000ff;" x="256.647273" xlink:href="#me8dc755c8e" y="84.616094"/>
     <use style="fill:#0000ff;stroke:#0000ff;" x="290.814545" xlink:href="#me8dc755c8e" y="71.680926"/>
     <use style="fill:#0000ff;stroke:#0000ff;" x="324.981818" xlink:href="#me8dc755c8e" y="57.533934"/>
     <use style="fill:#0000ff;stroke:#0000ff;" x="359.149091" xlink:href="#me8dc755c8e" y="53.327967"/>
     <use style="fill:#0000ff;stroke:#0000ff;" x="393.316364" xlink:href="#me8dc755c8e" y="48.75137"/>
    </g>
   </g>
   <g id="line2d_27">
    <path clip-path="url(#pe65a06a7b3)" d="M 51.643636 257.236364 
L 85.810909 210.326604 
L 119.978182 173.79416 
L 154.145455 145.343375 
L 188.312727 123.186435 
L 222.48 105.931025 
L 256.647273 92.492833 
L 290.814545 82.027421 
L 324.981818 73.877155 
L 359.149091 67.529879 
L 393.316364 62.586739 
" style="fill:none;stroke:#0000ff;stroke-dasharray:14.8,6.4;stroke-dashoffset:0;stroke-width:4;"/>
   </g>
   <g id="line2d_28">
    <path clip-path="url(#pe65a06a7b3)" d="M 51.643636 45.163636 
L 85.810909 92.073396 
L 119.978182 128.60584 
L 154.145455 157.056625 
L 188.312727 179.213565 
L 222.48 196.468975 
L 256.647273 209.907167 
L 290.814545 220.372579 
L 324.981818 228.522845 
L 359.149091 234.870121 
L 393.316364 239.813261 
" style="fill:none;stroke:#ff0000;stroke-dasharray:14.8,6.4;stroke-dashoffset:0;stroke-width:4;"/>
   </g>
   <g id="patch_3">
    <path d="M 34.56 267.84 
L 34.56 34.56 
" style="fill:none;stroke:#f0f0f0;stroke-linecap:square;stroke-linejoin:miter;stroke-width:3;"/>
   </g>
   <g id="patch_4">
    <path d="M 410.4 267.84 
L 410.4 34.56 
" style="fill:none;stroke:#f0f0f0;stroke-linecap:square;stroke-linejoin:miter;stroke-width:3;"/>
   </g>
   <g id="patch_5">
    <path d="M 34.56 267.84 
L 410.4 267.84 
" style="fill:none;stroke:#f0f0f0;stroke-linecap:square;stroke-linejoin:miter;stroke-width:3;"/>
   </g>
   <g id="patch_6">
    <path d="M 34.56 34.56 
L 410.4 34.56 
" style="fill:none;stroke:#f0f0f0;stroke-linecap:square;stroke-linejoin:miter;stroke-width:3;"/>
   </g>
   <g id="legend_1">
    <g id="line2d_29"/>
    <g id="line2d_30">
     <g>
      <use style="fill:#ff0000;stroke:#ff0000;" x="454.270906" xlink:href="#m02a309ffa8" y="168.920938"/>
     </g>
    </g>
    <g id="text_13">
     <!-- 3-OH-BA -->
     <g style="fill:#262626;" transform="translate(479.470906 173.820938)scale(0.14 -0.14)">
      <defs>
       <path d="M 203 1375 
L 203 1941 
L 1931 1941 
L 1931 1375 
L 203 1375 
z
" id="ArialMT-2d" transform="scale(0.015625)"/>
       <path d="M 309 2231 
Q 309 3372 921 4017 
Q 1534 4663 2503 4663 
Q 3138 4663 3647 4359 
Q 4156 4056 4423 3514 
Q 4691 2972 4691 2284 
Q 4691 1588 4409 1038 
Q 4128 488 3612 205 
Q 3097 -78 2500 -78 
Q 1853 -78 1343 234 
Q 834 547 571 1087 
Q 309 1628 309 2231 
z
M 934 2222 
Q 934 1394 1379 917 
Q 1825 441 2497 441 
Q 3181 441 3623 922 
Q 4066 1403 4066 2288 
Q 4066 2847 3877 3264 
Q 3688 3681 3323 3911 
Q 2959 4141 2506 4141 
Q 1863 4141 1398 3698 
Q 934 3256 934 2222 
z
" id="ArialMT-4f" transform="scale(0.015625)"/>
       <path d="M 513 0 
L 513 4581 
L 1119 4581 
L 1119 2700 
L 3500 2700 
L 3500 4581 
L 4106 4581 
L 4106 0 
L 3500 0 
L 3500 2159 
L 1119 2159 
L 1119 0 
L 513 0 
z
" id="ArialMT-48" transform="scale(0.015625)"/>
       <path d="M 469 0 
L 469 4581 
L 2188 4581 
Q 2713 4581 3030 4442 
Q 3347 4303 3526 4014 
Q 3706 3725 3706 3409 
Q 3706 3116 3547 2856 
Q 3388 2597 3066 2438 
Q 3481 2316 3704 2022 
Q 3928 1728 3928 1328 
Q 3928 1006 3792 729 
Q 3656 453 3456 303 
Q 3256 153 2954 76 
Q 2653 0 2216 0 
L 469 0 
z
M 1075 2656 
L 2066 2656 
Q 2469 2656 2644 2709 
Q 2875 2778 2992 2937 
Q 3109 3097 3109 3338 
Q 3109 3566 3000 3739 
Q 2891 3913 2687 3977 
Q 2484 4041 1991 4041 
L 1075 4041 
L 1075 2656 
z
M 1075 541 
L 2216 541 
Q 2509 541 2628 563 
Q 2838 600 2978 687 
Q 3119 775 3209 942 
Q 3300 1109 3300 1328 
Q 3300 1584 3169 1773 
Q 3038 1963 2805 2039 
Q 2572 2116 2134 2116 
L 1075 2116 
L 1075 541 
z
" id="ArialMT-42" transform="scale(0.015625)"/>
       <path d="M -9 0 
L 1750 4581 
L 2403 4581 
L 4278 0 
L 3588 0 
L 3053 1388 
L 1138 1388 
L 634 0 
L -9 0 
z
M 1313 1881 
L 2866 1881 
L 2388 3150 
Q 2169 3728 2063 4100 
Q 1975 3659 1816 3225 
L 1313 1881 
z
" id="ArialMT-41" transform="scale(0.015625)"/>
      </defs>
      <use xlink:href="#ArialMT-33"/>
      <use x="55.615234" xlink:href="#ArialMT-2d"/>
      <use x="88.916016" xlink:href="#ArialMT-4f"/>
      <use x="166.699219" xlink:href="#ArialMT-48"/>
      <use x="238.916016" xlink:href="#ArialMT-2d"/>
      <use x="272.216797" xlink:href="#ArialMT-42"/>
      <use x="338.916016" xlink:href="#ArialMT-41"/>
     </g>
    </g>
    <g id="line2d_31"/>
    <g id="line2d_32">
     <g>
      <use style="fill:#0000ff;stroke:#0000ff;" x="454.270906" xlink:href="#me8dc755c8e" y="188.724375"/>
     </g>
    </g>
    <g id="text_14">
     <!-- 3-OH-PAC -->
     <g style="fill:#262626;" transform="translate(479.470906 193.624375)scale(0.14 -0.14)">
      <defs>
       <path d="M 494 0 
L 494 4581 
L 2222 4581 
Q 2678 4581 2919 4538 
Q 3256 4481 3484 4323 
Q 3713 4166 3852 3881 
Q 3991 3597 3991 3256 
Q 3991 2672 3619 2267 
Q 3247 1863 2275 1863 
L 1100 1863 
L 1100 0 
L 494 0 
z
M 1100 2403 
L 2284 2403 
Q 2872 2403 3119 2622 
Q 3366 2841 3366 3238 
Q 3366 3525 3220 3729 
Q 3075 3934 2838 4000 
Q 2684 4041 2272 4041 
L 1100 4041 
L 1100 2403 
z
" id="ArialMT-50" transform="scale(0.015625)"/>
       <path d="M 3763 1606 
L 4369 1453 
Q 4178 706 3683 314 
Q 3188 -78 2472 -78 
Q 1731 -78 1267 223 
Q 803 525 561 1097 
Q 319 1669 319 2325 
Q 319 3041 592 3573 
Q 866 4106 1370 4382 
Q 1875 4659 2481 4659 
Q 3169 4659 3637 4309 
Q 4106 3959 4291 3325 
L 3694 3184 
Q 3534 3684 3231 3912 
Q 2928 4141 2469 4141 
Q 1941 4141 1586 3887 
Q 1231 3634 1087 3207 
Q 944 2781 944 2328 
Q 944 1744 1114 1308 
Q 1284 872 1643 656 
Q 2003 441 2422 441 
Q 2931 441 3284 734 
Q 3638 1028 3763 1606 
z
" id="ArialMT-43" transform="scale(0.015625)"/>
      </defs>
      <use xlink:href="#ArialMT-33"/>
      <use x="55.615234" xlink:href="#ArialMT-2d"/>
      <use x="88.916016" xlink:href="#ArialMT-4f"/>
      <use x="166.699219" xlink:href="#ArialMT-48"/>
      <use x="238.916016" xlink:href="#ArialMT-2d"/>
      <use x="272.216797" xlink:href="#ArialMT-50"/>
      <use x="331.541016" xlink:href="#ArialMT-41"/>
      <use x="398.240234" xlink:href="#ArialMT-43"/>
     </g>
    </g>
    <g id="line2d_33">
     <path style="fill:none;stroke:#0000ff;stroke-dasharray:14.8,6.4;stroke-dashoffset:0;stroke-width:4;"/>
    </g>
    <g id="line2d_34"/>
    <g id="text_15">
     <!-- 3-OH-PAC modelled -->
     <g style="fill:#262626;" transform="translate(479.470906 213.427813)scale(0.14 -0.14)">
      <defs>
       <path id="ArialMT-20" transform="scale(0.015625)"/>
       <path d="M 422 0 
L 422 3319 
L 925 3319 
L 925 2853 
Q 1081 3097 1340 3245 
Q 1600 3394 1931 3394 
Q 2300 3394 2536 3241 
Q 2772 3088 2869 2813 
Q 3263 3394 3894 3394 
Q 4388 3394 4653 3120 
Q 4919 2847 4919 2278 
L 4919 0 
L 4359 0 
L 4359 2091 
Q 4359 2428 4304 2576 
Q 4250 2725 4106 2815 
Q 3963 2906 3769 2906 
Q 3419 2906 3187 2673 
Q 2956 2441 2956 1928 
L 2956 0 
L 2394 0 
L 2394 2156 
Q 2394 2531 2256 2718 
Q 2119 2906 1806 2906 
Q 1569 2906 1367 2781 
Q 1166 2656 1075 2415 
Q 984 2175 984 1722 
L 984 0 
L 422 0 
z
" id="ArialMT-6d" transform="scale(0.015625)"/>
       <path d="M 213 1659 
Q 213 2581 725 3025 
Q 1153 3394 1769 3394 
Q 2453 3394 2887 2945 
Q 3322 2497 3322 1706 
Q 3322 1066 3130 698 
Q 2938 331 2570 128 
Q 2203 -75 1769 -75 
Q 1072 -75 642 372 
Q 213 819 213 1659 
z
M 791 1659 
Q 791 1022 1069 705 
Q 1347 388 1769 388 
Q 2188 388 2466 706 
Q 2744 1025 2744 1678 
Q 2744 2294 2464 2611 
Q 2184 2928 1769 2928 
Q 1347 2928 1069 2612 
Q 791 2297 791 1659 
z
" id="ArialMT-6f" transform="scale(0.015625)"/>
       <path d="M 2575 0 
L 2575 419 
Q 2259 -75 1647 -75 
Q 1250 -75 917 144 
Q 584 363 401 755 
Q 219 1147 219 1656 
Q 219 2153 384 2558 
Q 550 2963 881 3178 
Q 1213 3394 1622 3394 
Q 1922 3394 2156 3267 
Q 2391 3141 2538 2938 
L 2538 4581 
L 3097 4581 
L 3097 0 
L 2575 0 
z
M 797 1656 
Q 797 1019 1065 703 
Q 1334 388 1700 388 
Q 2069 388 2326 689 
Q 2584 991 2584 1609 
Q 2584 2291 2321 2609 
Q 2059 2928 1675 2928 
Q 1300 2928 1048 2622 
Q 797 2316 797 1656 
z
" id="ArialMT-64" transform="scale(0.015625)"/>
       <path d="M 2694 1069 
L 3275 997 
Q 3138 488 2766 206 
Q 2394 -75 1816 -75 
Q 1088 -75 661 373 
Q 234 822 234 1631 
Q 234 2469 665 2931 
Q 1097 3394 1784 3394 
Q 2450 3394 2872 2941 
Q 3294 2488 3294 1666 
Q 3294 1616 3291 1516 
L 816 1516 
Q 847 969 1125 678 
Q 1403 388 1819 388 
Q 2128 388 2347 550 
Q 2566 713 2694 1069 
z
M 847 1978 
L 2700 1978 
Q 2663 2397 2488 2606 
Q 2219 2931 1791 2931 
Q 1403 2931 1139 2672 
Q 875 2413 847 1978 
z
" id="ArialMT-65" transform="scale(0.015625)"/>
       <path d="M 409 0 
L 409 4581 
L 972 4581 
L 972 0 
L 409 0 
z
" id="ArialMT-6c" transform="scale(0.015625)"/>
      </defs>
      <use xlink:href="#ArialMT-33"/>
      <use x="55.615234" xlink:href="#ArialMT-2d"/>
      <use x="88.916016" xlink:href="#ArialMT-4f"/>
      <use x="166.699219" xlink:href="#ArialMT-48"/>
      <use x="238.916016" xlink:href="#ArialMT-2d"/>
      <use x="272.216797" xlink:href="#ArialMT-50"/>
      <use x="331.541016" xlink:href="#ArialMT-41"/>
      <use x="398.240234" xlink:href="#ArialMT-43"/>
      <use x="470.457031" xlink:href="#ArialMT-20"/>
      <use x="498.240234" xlink:href="#ArialMT-6d"/>
      <use x="581.541016" xlink:href="#ArialMT-6f"/>
      <use x="637.15625" xlink:href="#ArialMT-64"/>
      <use x="692.771484" xlink:href="#ArialMT-65"/>
      <use x="748.386719" xlink:href="#ArialMT-6c"/>
      <use x="770.603516" xlink:href="#ArialMT-6c"/>
      <use x="792.820312" xlink:href="#ArialMT-65"/>
      <use x="848.435547" xlink:href="#ArialMT-64"/>
     </g>
    </g>
    <g id="line2d_35">
     <path style="fill:none;stroke:#ff0000;stroke-dasharray:14.8,6.4;stroke-dashoffset:0;stroke-width:4;"/>
    </g>
    <g id="line2d_36"/>
    <g id="text_16">
     <!-- 3-OH-PAC modelled -->
     <g style="fill:#262626;" transform="translate(479.470906 233.23125)scale(0.14 -0.14)">
      <use xlink:href="#ArialMT-33"/>
      <use x="55.615234" xlink:href="#ArialMT-2d"/>
      <use x="88.916016" xlink:href="#ArialMT-4f"/>
      <use x="166.699219" xlink:href="#ArialMT-48"/>
      <use x="238.916016" xlink:href="#ArialMT-2d"/>
      <use x="272.216797" xlink:href="#ArialMT-50"/>
      <use x="331.541016" xlink:href="#ArialMT-41"/>
      <use x="398.240234" xlink:href="#ArialMT-43"/>
      <use x="470.457031" xlink:href="#ArialMT-20"/>
      <use x="498.240234" xlink:href="#ArialMT-6d"/>
      <use x="581.541016" xlink:href="#ArialMT-6f"/>
      <use x="637.15625" xlink:href="#ArialMT-64"/>
      <use x="692.771484" xlink:href="#ArialMT-65"/>
      <use x="748.386719" xlink:href="#ArialMT-6c"/>
      <use x="770.603516" xlink:href="#ArialMT-6c"/>
      <use x="792.820312" xlink:href="#ArialMT-65"/>
      <use x="848.435547" xlink:href="#ArialMT-64"/>
     </g>
    </g>
   </g>
  </g>
 </g>
 <defs>
  <clipPath id="pe65a06a7b3">
   <rect height="233.28" width="375.84" x="34.56" y="34.56"/>
  </clipPath>
 </defs>
</svg>
